<?xml version="1.0" encoding="UTF-8"?>
<svg width="15.011mm" height="3.3824mm" version="1.1" viewBox="0 0 15.011 3.3824" xmlns="http://www.w3.org/2000/svg"><g transform="translate(-39.735 -16.029)" stroke-width=".26458"><text x="32.033482" y="21.266367" fill="#9bd1c6" font-family="'Salt &amp; Spices Pro'" font-size="4.2333px" letter-spacing="0px" word-spacing="0px" style="line-height:2" xml:space="preserve"><tspan x="32.033482" y="26.270166" font-family="'Salt &amp; Spices Pro'" stroke-width=".26458"/></text><g fill="#9bd1c6" aria-label="ordinace:"><path d="m41.683 17.668c-0.02963 0.0381-0.09737 0.1016-0.13123 0.14393l-0.1524 0.13123c-0.04657 0.0381-0.08043 0.06773-0.1016 0.08043l-0.0085 0.0042c-0.01693 0.0127-0.0381 0.02963-0.04233 0.03387l-0.05503 0.0254-0.02963 0.02117c-0.01693 0.0127-0.02963 0.01693-0.0381 0.01693-0.0085 0.0042-0.02117 0.0085-0.0381 0.0127l-0.02963 0.0042-0.02963 0.0085-0.13547-0.0127c-0.0042 0-0.01693-0.0042-0.03387-0.0085-0.0042 0-0.0254-0.0254-0.02963-0.0254l0.0085-0.04657c0-0.03387 0-0.0508 0.0042-0.05503-0.0042-0.0042-0.0042-0.0085-0.0042-0.01693v-0.01687c0-0.0085 0.0042-0.01693 0.0085-0.02963v-0.05927c0-0.0042 0.0042-0.02117 0.0042-0.0254v-0.01693c0.0042-0.0127 0.0042-0.02117 0.0042-0.0254 0.0042-0.0042 0.0042-0.0127 0.0042-0.01693l-0.0042-0.05927c0-0.01693-0.0042-0.0381-0.0085-0.05927v-0.02963c0-0.0254 0-0.04657-0.0042-0.05927l-0.0042-0.0127c-0.0042-0.01693-0.0127-0.04233-0.0127-0.05503l-0.0042-0.01693c-0.0042-0.01693-0.0085-0.04233-0.0127-0.05503l-0.0127-0.0127c0-0.0042 0-0.0085-0.0042-0.0127l-0.0042-0.0085-0.0085-0.01693c-0.0042-0.03387-0.0254-0.0635-0.07197-0.09313l-0.03387-0.02117-0.0254 0.0042c-0.0508 0.0127-0.0889 0.04657-0.11007 0.11007-0.0085 0.03387-0.02117 0.03387-0.02117 0.05927l-0.0085 0.04657c-0.0085 0.0381-0.0127 0.08043-0.0127 0.11853 0 0.02117 0.0042 0.07197 0.0042 0.0889 0.0042 0.0085 0.0042 0.02117 0.0042 0.0381l0.0085 0.05927v0.0085l0.0084 0.017v0.0127l0.0042 0.0042c0.01693 0.06773 0.04657 0.127 0.09313 0.17357l0.02963 0.0381c0.0042 0.01693 0.0127 0.03387 0.03387 0.04657l0.05503 0.0381-0.02117 0.0635c-0.0085 0.0127-0.0127 0.0254-0.0127 0.0381l-0.03387 0.05503c-0.0042 0.0085-0.0254 0.0381-0.05503 0.09313l-0.04233 0.07197c-0.0635 0.10583-0.1143 0.18627-0.1524 0.23283l-0.01693 0.02117c-0.02117 0.02117-0.03387 0.03387-0.04233 0.0381-0.04657 0.0381-0.0762 0.0635-0.09313 0.07197-0.1397 0.0762-0.18203 0.02117-0.18203-0.01693 0-0.0042-0.0127-0.05927-0.0127-0.0889 0-0.0042-0.0042-0.0254-0.0042-0.0381 0-0.0042-0.0042-0.01693-0.0042-0.02117 0-0.02963 0.0042-0.0889 0.0042-0.11853v-0.10583c0-0.01693 0.01693-0.10583 0.01693-0.11853l0.04233-0.19473c0.0085-0.01693 0.01693-0.0381 0.02117-0.05927l0.0127-0.0381c0.0254-0.0635 0.05503-0.12277 0.08467-0.1778 0.0254-0.04657 0.05503-0.08467 0.08467-0.1143 0.01693-0.01693 0.0381-0.0508 0.05503-0.06773l0.0085-0.0127c0.02117 0 0.03387-0.02963 0.03387-0.08467v-0.0127c0.0042-0.0127 0.0042-0.01693 0.0042-0.02117v-0.016958c0-0.02117-0.0085-0.02963-0.02963-0.02963-0.0889 0-0.1905 0.0381-0.3048 0.11007-0.02117 0.0127-0.04233 0.03387-0.0635 0.0635-0.02117 0.03387-0.0381 0.05503-0.05503 0.0635l-0.02117 0.0254c-0.02117 0.01693-0.03387 0.02963-0.03387 0.0381l-0.0889 0.16087c-0.03387 0.05927-0.0635 0.15663-0.08467 0.28787 0 0.0127-0.0085 0.04233-0.0085 0.04657l-0.0042 0.127c0 0.0042 0.0042 0.05503 0.01693 0.14393 0 0.0127 0.02117 0.0762 0.02117 0.09313 0.0042 0.04657 0.02117 0.0889 0.04657 0.13547 0.01693 0.02117 0.03387 0.04233 0.04657 0.05503 0.0042 0.0042 0.0127 0.0127 0.0254 0.02963l0.04233 0.04233 0.04233 0.0127c0.0042 0.0127 0.0889 0.01693 0.10583 0.01693 0.01693 0.0085 0.0508-0.0042 0.0635-0.0042h0.01693c0.0254 0 0.06773-0.02117 0.07197-0.0254 0.0085-0.0085 0.0127-0.0127 0.01693-0.0127l0.08467-0.04233c0.0042 0 0.0085-0.0042 0.02117-0.0127l0.0635-0.05503 0.02117-0.01693c0.07197-0.07197 0.14393-0.1778 0.2159-0.31327 0-0.0042 0.0085-0.0127 0.0085-0.01693l0.04233-0.09313 0.0254-0.03387c0.0042-0.0042 0.0085-0.02117 0.01693-0.04233 0.0127-0.0381 0.02963-0.0635 0.04233-0.08467l0.05503 0.01693c0.01693 0 0.05927 0.0042 0.08043 0.0042 0.02117 0.0042 0.05503 0.0042 0.11007 0.0042 0.0127 0 0.0254-0.0042 0.04233-0.01693l0.06773-0.01693c0.0085-0.01693 0.03387-0.0127 0.05927-0.02963 0.0042-0.0042 0.0381-0.01693 0.04233-0.02117l0.09737-0.07197c0.0085-0.0042 0.01693-0.0085 0.02117-0.0127l0.09737-0.08043c0.0042-0.0085 0.02963-0.02963 0.06773-0.05927l0.04233-0.02963c0.0127-0.01693 0.02963-0.0381 0.0508-0.05927l0.04657-0.04657 0.04233-0.0508c0.0042-0.0042 0.04657-0.04233 0.0635-0.07197l0.02117-0.01693 0.04233-0.05927 0.03387-0.02963h-0.06773zm-0.89323 0.1651c0 0.0085 0 0.01693-0.0042 0.02117v0.09313l-0.0085 0.0508c-0.0042 0.0042-0.0042 0.0085-0.0042 0.01693v0.0127c-0.0127 0-0.02117-0.0254-0.02963-0.03387l-0.04657-0.0889-0.04657-0.13123-0.0127-0.05927v-0.01693c-0.0042-0.0085-0.0042-0.01693-0.0042-0.02117l-0.0085-0.05927v-0.16087c0-0.05503 0.0042-0.08467 0.01693-0.09737l0.0127-0.0127c0.06773 0.0127 0.1143 0.16933 0.1143 0.22013 0.0085 0.04657 0.0127 0.0762 0.0127 0.09737v0.08043z"/><path d="m42.245 19.149c0-0.0042 0.0127-0.127 0.0127-0.1778 0-0.0381 0.0085-0.08467 0.02117-0.14817 0.0127-0.01693 0.0127-0.1016 0.01693-0.11853 0-0.0127 0.0127-0.04657 0.01693-0.0762l0.0042-0.02117 0.02117-0.05503 0.0042-0.0508c0.0085-0.0762 0.0254-0.08467 0.04233-0.14817l0.02117-0.08467c0.01693-0.04657 0.0381-0.1143 0.0381-0.1143 0-0.02963 0.0042-0.04657 0.0042-0.0635 0-0.0042 0-0.0085 0.0042-0.02117l0.0085-0.02117v-0.0635c0-0.0508-0.01693-0.08467-0.04657-0.1016-0.0042 0-0.03387-0.01693-0.05503-0.02963l-0.01693-0.0085c-0.0042 0-0.0085-0.0042-0.0127-0.0085l-0.01693-0.0127c-0.02117-0.02117-0.05927-0.05503-0.08043-0.0762-0.09313-0.15663-0.1397-0.254-0.14393-0.2921 0.0127-0.0042 0.01693-0.05927 0.03387-0.08043 0.02117-0.0381 0.02963-0.127 0.04233-0.16087 0-0.0042 0.0042-0.0127 0.0085-0.03387l0.0042-0.03387c0.0042-0.03387 0.0085-0.05503 0.0085-0.05927v-0.06773l-0.0042-0.05503c-0.0042-0.0508-0.01693-0.08043-0.02963-0.08467l-0.04657-0.02963c-0.04657 0-0.10583 0.02117-0.17357 0.0635-0.06773 0.06773-0.11007 0.127-0.13123 0.17357-0.0381 0.07197-0.05503 0.1143-0.05503 0.127v0.19481c0 0.0381 0.0381 0.127 0.0381 0.16087l0.04657 0.07197c0.03387 0.03387 0.09313 0.11853 0.10583 0.13547 0.03387 0.03387 0.06773 0.0508 0.10583 0.1016l0.08467 0.05927c0.0085 0.0085 0.0127 0.0127 0.01693 0.0127l-0.0254 0.127c-0.02963 0.1016-0.04657 0.1778-0.05927 0.23283-0.02117 0.06773-0.02963 0.11007-0.03387 0.13123 0 0.0127-0.02117 0.1016-0.02117 0.10583-0.0042 0.02963-0.0254 0.11853-0.02963 0.15663-0.0127 0.06773-0.01693 0.127-0.01693 0.17357v0.12277c0 0.0381 0.0085 0.0889 0.02117 0.14393 0.0127 0.07197 0.04233 0.1397 0.08467 0.19897 0.0381 0.0381 0.0508 0.06773 0.13547 0.06773 0.03387 0 0.07197-0.01693 0.1143-0.04657l0.0127-0.0085 0.04657-0.02963c0.09737-0.07197 0.15663-0.13547 0.1778-0.1905l0.09313-0.13547c0.0042-0.0042 0.02963-0.0381 0.0762-0.11007 0.04657-0.07197 0.07197-0.11007 0.0762-0.1143l0.27093-0.43603c0.0042 0 0.0085-0.0127 0.02117-0.0381l0.35137-0.52493 0.0508-0.05927c0.0127-0.0127 0.01693-0.02117 0.01693-0.02963l0.09737-0.1143 0.03387-0.02963h-0.06773l-0.04233 0.0381-0.13547 0.16933c-0.04233 0.07197-0.04233 0.0381-0.0762 0.11007l-0.0085 0.0127-0.05503 0.07197c-0.0042 0.0085-0.0127 0.02117-0.01693 0.0381l-0.08043 0.13123c-0.01693 0.01693-0.03387 0.0381-0.0508 0.06773l-0.0042 0.0042-0.0127 0.0254-0.13547 0.19897-0.0085 0.0127c-0.0127 0.0127-0.17357 0.2794-0.19473 0.30057l-0.127 0.2159c-0.04233 0.07197-0.06773 0.11007-0.0762 0.1143l-0.0762 0.09737-0.08043 0.1016-0.09737 0.05927c-0.02963 0-0.04657-0.0381-0.04657-0.11853zm-0.2286-1.9177c0-0.01693 0.0042-0.08467 0.0042-0.1016v-0.02117c0-0.02963-0.0127-0.0042 0.0085-0.07197 0-0.0127 0.01693-0.06773 0.01693-0.07197 0-0.04233 0.02117-0.0635 0.0635-0.0635l0.02117 0.0381c-0.0127 0.25823-0.03387 0.4064-0.06773 0.4445-0.02963-0.0635-0.04657-0.1143-0.04657-0.1524z"/><path d="m45.848 17.575 0.03387-0.02963h-0.06773l-0.13124 0.11853c-0.0635 0.0635-0.127 0.1397-0.18627 0.22437l-0.01693 0.0254c-0.0042 0.0042-0.01693 0.0254-0.02963 0.04657l-0.07197 0.08467c-0.0085 0.0042-0.03387 0.03387-0.0762 0.0889l-0.07197 0.1016-0.4191 0.51223c-0.01693 0.02963-0.09313 0.1016-0.10583 0.1143l-0.18203 0.23283c-0.0085 0.0085-0.01693 0.01693-0.02117 0.02963 0 0.0085-0.0085 0.01693-0.0254 0.0254l-0.02963 0.0254-0.05927 0.01693c-0.0254 0.0085-0.04657 0.0127-0.06773 0.0127h-0.0254c-0.02963-0.0381-0.04233-0.05927-0.04233-0.07197v-0.021164c0-0.0042 0-0.0254-0.0042-0.05927l-0.0085-0.04657v-0.0762c0-0.03387 0.0042-0.0635 0.0085-0.0889l0.0042-0.07197 0.0042-0.0381v-0.02117l0.0042-0.01693v-0.0381c0-0.04657 0.0127-0.1397 0.0127-0.14393l0.0085-0.04657c0-0.05927 0.01693-0.16087 0.04657-0.30903l0.0042-0.0042c0.0042-0.0085 0.0042-0.0127 0.0042-0.01693l0.0127-0.02963c0.0254-0.08043 0.0508-0.22013 0.05503-0.23283l0.05503-0.05927c0.04233-0.05503 0.0635-0.09737 0.0635-0.11853l0.02963-0.03387c0.0127-0.0042 0.02117-0.01693 0.0254-0.02963l0.02117-0.0381c0.0127-0.0381 0.04657-0.05503 0.04657-0.0762l0.0085-0.0127c0.01693-0.01693 0.0254-0.0254 0.0254-0.02963l0.0127-0.02963 0.0084-0.017 0.0508-0.0889c0.0381-0.08043 0.08467-0.11853 0.08467-0.1397l0.0085-0.0085 0.0127-0.0254 0.0085-0.0085c0.0127-0.01693 0.02963-0.0508 0.04233-0.06773l0.0085-0.0127 0.0127-0.0381c0.02963-0.0381 0.04657-0.06773 0.05503-0.09737l0.02117-0.0254 0.0042-0.0127 0.06773-0.13547 0.0042-0.0085c0.0042-0.0127 0.0127-0.02963 0.01693-0.04233l0.0042-0.0127c0-0.0042 0.0042-0.0127 0.0042-0.01693l0.01693-0.03387 0.0042-0.0042v-0.0127c0-0.0085 0.0042-0.01693 0.0127-0.02963l0.0254-0.05503c0-0.0042 0-0.0042 0.0042-0.0085v-0.0042l0.0254-0.07197 0.03387-0.1143c0.0085-0.03387 0.02117-0.11007 0.02117-0.11007v-0.04657c0.0042-0.0042 0.0042-0.0127 0.0042-0.02117v-0.04237c-0.0042-0.0085-0.0042-0.0127-0.0042-0.01693-0.0127-0.05503-0.05503-0.08467-0.11853-0.08467-0.12277 0-0.3048 0.10583-0.37677 0.19473l-0.10583 0.127c-0.02963 0.0381-0.0508 0.07197-0.06773 0.11007l-0.04233 0.08043c0 0.0042 0 0.0042-0.0042 0.0085l-0.0042 0.0042-0.0127 0.0254-0.0085 0.0085c-0.0127 0.0127-0.0254 0.0381-0.0381 0.08467l-0.09737 0.18627c-0.05503 0.16087-0.09313 0.25823-0.11007 0.29633 0 0.0085 0 0.02117-0.0042 0.03387l-0.0042 0.01693-0.04233 0.127v0.0085l-0.0042 0.0085v0.01693l-0.02963 0.11853-0.01693 0.04233-0.03387 0.1778c-0.01693 0.0635-0.03387 0.09737-0.03387 0.11853l-0.0085 0.04233c0 0.0508-0.0381 0.16933-0.07197 0.2159l-0.0508 0.06773-0.14817 0.16933-0.0508 0.07197c-0.02963 0.0381-0.0508 0.06773-0.06773 0.0889l-0.05503 0.05927-0.0381 0.04657-0.11853 0.1397c-0.0127 0.02963-0.02117 0.02117-0.14393 0.11853-0.0085 0.0042-0.01693 0.0042-0.02963 0.0042-0.03387 0-0.0508-0.03387-0.0508-0.1016v-0.1016c0-0.0127 0.02117-0.1143 0.02117-0.127 0.0042-0.04657 0.02117-0.08467 0.02117-0.1143l0.04233-0.0889c0.01693-0.03387 0.0381-0.1143 0.0381-0.11853 0-0.0085 0.0042-0.01693 0.0085-0.02963l0.02963-0.07197c0.0085-0.05927 0.0254-0.09737 0.04657-0.11853l0.04233-0.09737c0-0.01693 0.02963-0.0762 0.02963-0.08043l0.04657-0.0762c0.0127-0.0127 0.01693-0.02117 0.02117-0.0254l0.02117-0.0254c0.0254-0.0381 0.0635-0.07197 0.11007-0.1016l0.05503 0.0085c0.01693 0.0127 0.04233 0.04657 0.0762 0.11007l-0.0085 0.02117c0 0.0254-0.0127 0.0508-0.03387 0.07197l-0.0254 0.0254c-0.0085 0.02117-0.02117 0.0381-0.0381 0.04233l-0.0508 0.0127c-0.03387 0.0127-0.0508 0.0254-0.0508 0.04657 0 0.0254 0.0085 0.0381 0.02963 0.0381 0.02117 0 0.07197-0.0254 0.07197-0.04233l0.04233-0.03387c0.08043-0.0381 0.09313-0.1016 0.09737-0.10583 0.0042-0.0042 0.0085-0.0085 0.0085-0.0127l0.0127-0.0127c0-0.0042 0.0042-0.0085 0.0085-0.02117v-0.0508l-0.0127-0.02963-0.03387-0.04657-0.09737-0.05503c-0.0127-0.0042-0.0381-0.0085-0.07197-0.0085h-0.04233c-0.0635 0-0.12277 0.0127-0.14393 0.0254-0.02117 0.0127-0.0762 0.04233-0.08043 0.04233l-0.16087 0.1397c-0.0127 0.0127-0.0254 0.02963-0.0381 0.0508l-0.0254 0.0381c-0.02117 0.02963-0.0508 0.0762-0.08043 0.1397l-0.0085 0.01693c0 0.0042-0.0042 0.01693-0.01693 0.0381l-0.0127 0.03387-0.0254 0.0508-0.0508 0.16087c-0.0127 0.02963-0.02117 0.11007-0.02963 0.23707v0.1778c0.0042 0.01693 0.0085 0.04233 0.0085 0.04657l0.0127 0.05927c0 0.0127 0.0042 0.0254 0.0127 0.0381l0.0127 0.0254 0.02117 0.0508c0.0042 0.02963 0.06773 0.08043 0.1143 0.08043 0.02963 0 0.0508 0 0.05503-0.0042l0.03387-0.0085c0-0.0042 0.02117-0.02117 0.04233-0.0254l0.01693-0.0085 0.0381-0.03387 0.0127-0.0085c0.04657-0.02963 0.09313-0.08043 0.1143-0.09313l0.0635-0.0635c0.03387-0.02117 0.05927-0.04657 0.0762-0.0762l0.04657-0.05503c0.0127-0.01693 0.04657-0.04657 0.0508-0.05927l0.05503-0.0635 0.06773-0.09737 0.0042-0.0042c0.0042-0.0042 0.02117-0.0254 0.0254-0.02963l0.0127-0.01693c0.0042-0.0042 0.0085-0.0085 0.0127-0.0085l0.1016-0.13123-0.0085 0.07197c-0.03387 0.1397-0.05503 0.3175-0.06773 0.52917v0.2286c0 0.01693 0.0042 0.0381 0.01693 0.06773l0.0254 0.0889c0.0042 0.02117 0.0085 0.04233 0.02117 0.06773l0.05503 0.0635 0.0381 0.0127 0.01693 0.0085c0.0127 0 0.02117 0.0042 0.02963 0.0127h0.04657c0.02117 0 0.0508-0.0042 0.08467-0.01693h0.01693c0-0.02963 0.05927-0.0085 0.0762-0.0254l0.05927-0.03387 0.08043-0.08043 0.0042-0.0085v-0.0042l0.08467-0.08043c0.0127-0.01693 0.02117-0.02963 0.02963-0.0381l0.0381-0.05503c0.0127-0.0042 0.02117-0.01693 0.0254-0.03387l0.07197-0.07197c0.0042-0.0042 0.01693-0.02117 0.0381-0.04233 0.0042-0.0085 0.03387-0.04233 0.08467-0.10583 0.0508-0.05927 0.08043-0.0889 0.0889-0.09313l0.01693-0.0254c0-0.01693 0.0085-0.0254 0.0254-0.02963l0.16087-0.22437 0.10583-0.11007c0.0042-0.0042 0.0127-0.0127 0.0254-0.03387l0.18627-0.23283c0.0042-0.0042 0.04657-0.05503 0.11853-0.1524 0.07197-0.09313 0.1143-0.14393 0.127-0.15663l0.05503-0.05503zm-1.3716 0.0127c0.01693-0.08467 0.04657-0.16087 0.0635-0.2413 0-0.0042 0.0042-0.01693 0.0127-0.03387l0.0127-0.03387c0-0.0127 0.0042-0.02963 0.0085-0.04233l0.0085-0.02117 0.01693-0.07197c0.0085-0.02963 0.02117-0.0635 0.03387-0.11007l0.02117-0.05503c0.0042-0.04657 0.06773-0.14393 0.08467-0.21167l0.0084-0.017c0.0254-0.0381 0.0381-0.0635 0.0381-0.08043 0.0127-0.02117 0.03387-0.08043 0.0508-0.1143l0.0127-0.02963 0.06773-0.14817c0.01693-0.0381 0.02963-0.0889 0.0508-0.12277l0.0381-0.0635c0-0.0381 0.0635-0.08043 0.1016-0.08043l0.02963-0.0085c0.02963 0.0127 0.0381 0.0254 0.04233 0.02963v0.1228l-0.0127 0.04233c0 0.0127-0.0042 0.02117-0.0085 0.0254l-0.0085 0.01693-0.0042 0.01693c0 0.01693-0.02117 0.0508-0.02117 0.0635l-0.02117 0.04233c-0.0085 0.0127-0.01693 0.02963-0.02117 0.05503l-0.0127 0.0381c-0.0042 0.0127-0.01693 0.0381-0.02963 0.08043l-0.04233 0.1016c-0.03387 0.05503-0.05927 0.10583-0.07197 0.14393l-0.05927 0.11007-0.0042 0.0127-0.0508 0.11007-0.02117 0.02117-0.0085 0.02963c-0.0042 0.0042-0.02963 0.05503-0.04657 0.07197l-0.01693 0.01693c-0.0085 0.0085-0.01693 0.01693-0.02117 0.02963l-0.03387 0.05503-0.03387 0.06773-0.0508 0.0762c-0.0042 0.0085-0.0042 0.01693-0.0085 0.02117l-0.02117 0.02963c-0.02117 0.03387-0.0635 0.09737-0.08467 0.127 0-0.0042 0-0.01693 0.0042-0.0381z"/><path d="m46.861 18.044c-0.0085 0.0085-0.0381 0.04657-0.08467 0.11007l-0.2794 0.3302c-0.02117 0.01693-0.11007 0.11853-0.26247 0.30057-0.0508 0.05503-0.1016 0.11007-0.14817 0.17357-0.02117 0.02117-0.05503 0.0635-0.1016 0.12277-0.0042 0-0.05927 0.05503-0.0635 0.05503-0.0085 0.0085-0.05503 0.04657-0.06773 0.0508-0.0254 0.02963-0.0635 0.04657-0.1143 0.04657h-0.02963c-0.02117-0.02963-0.03387-0.06773-0.03387-0.11007 0-0.02117 0-0.0381 0.0042-0.0508l0.02117-0.11853c0-0.0042 0.04233-0.18627 0.04233-0.1905 0.0127-0.02963 0.02117-0.07197 0.03387-0.127 0-0.0042 0.0042-0.0127 0.0085-0.03387l0.0042-0.0254c0-0.0042 0.0042-0.0127 0.0127-0.0254l0.0085-0.02117 0.0127-0.0635c0-0.0127 0.01693-0.07197 0.02117-0.0762l0.0254-0.13123c0.0085-0.0127 0.01693-0.04233 0.0254-0.08467 0.0127-0.0381 0.02963-0.16087 0.05927-0.2286l0.0508-0.13547c0.0127-0.03387 0.0381-0.1016 0.08043-0.20743 0.0042-0.0127 0.0085-0.03387 0.0085-0.05927v-0.06773c0-0.01693-0.06773-0.07197-0.0889-0.07197-0.03387 0-0.08043 0.0254-0.09737 0.02963-0.06773 0.05503-0.13547 0.16933-0.19897 0.3429l-0.0127 0.02963c-0.0042 0.0127-0.0127 0.04657-0.02963 0.1016s-0.02963 0.0889-0.03387 0.09737c-0.01693 0.0381-0.04233 0.1397-0.04657 0.16087-0.04657 0.13123-0.07197 0.2286-0.08467 0.29633l-0.02117 0.1016c0 0.01693-0.02117 0.11007-0.02117 0.127-0.0042 0.04233-0.0042 0.09737-0.0042 0.16087v0.04233c0 0.0889 0.0042 0.1524 0.01693 0.1905 0.0127 0.0635 0.0635 0.127 0.14393 0.18627l0.0254 0.0127c0.0127 0.0127 0.03387 0.01693 0.0635 0.01693 0.0381 0 0.0889-0.02117 0.16087-0.05927 0.01693 0 0.0508-0.0254 0.10583-0.08043l0.0889-0.0889 0.18627-0.21167c0.0042-0.0085 0.0254-0.0381 0.0635-0.08467l0.0508-0.0508c0.01693-0.02117 0.0381-0.04657 0.0508-0.05927 0.0127-0.01693 0.06773-0.08467 0.0889-0.10583l0.04233-0.0508c0.0381-0.0508 0.03387-0.02117 0.06773-0.08043l0.08467-0.09313c0.0127-0.0127 0.01693-0.01693 0.01693-0.02117l0.02963-0.03387c0.02117-0.01693 0.0381-0.0381 0.0508-0.0635l0.18622-0.23704c0.0127-0.0127 0.0254-0.02963 0.0381-0.0508s0.05927-0.08043 0.1397-0.18203l0.07197-0.0762c0.0127-0.0042 0.0254-0.01693 0.04657-0.0381l0.0508-0.05927 0.03387-0.02963h-0.06773l-0.13547 0.12277-0.03387 0.04657c-0.0762 0.08043-0.12277 0.1397-0.14393 0.17357l-0.01693 0.0254c-0.0042 0.0042-0.0042 0.0085-0.0042 0.01693-0.02963 0.02963-0.0508 0.05503-0.0635 0.0762zm-0.68157-1.5579c0 0.12277 0.11007 0.23283 0.2413 0.2667h0.05503c0.0381 0 0.05503-0.01693 0.05503-0.04657 0-0.0085 0.0042-0.0127 0.0085-0.01693 0.0042-0.0042 0.0085-0.0085 0.0085-0.0127 0-0.0085 0-0.01693-0.0042-0.02117l-0.0381-0.07197c-0.02117-0.0254-0.0381-0.05927-0.0508-0.1016-0.0042-0.0127-0.02117-0.0508-0.03387-0.06773-0.01693-0.0127-0.08467-0.01693-0.09313-0.02117l-0.0085-0.0042c-0.09313 0-0.1397 0.03387-0.1397 0.09737z"/><path d="m48.104 19.124c0.0085 0 0.01693 0 0.0254 0.0042h0.01693l0.0127 0.0042h0.04233l0.0254-0.0127 0.0127-0.0085c0.0042-0.0042 0.0085-0.0042 0.0127-0.0042 0.02963 0 0.0889-0.0762 0.10583-0.08043 0.0042-0.0042 0.0254-0.02117 0.05503-0.05927l0.04233-0.04657c0.03387-0.05927 0.06773-0.0762 0.0762-0.08467l0.1016-0.1397c0.0042-0.0127 0.02963-0.0381 0.03387-0.04233 0.02117-0.0381 0.08043-0.10583 0.09313-0.127l0.2667-0.32173c0.08467-0.08467 0.13123-0.13547 0.1397-0.14817 0.02117-0.0381 0.0381-0.05503 0.0508-0.05503l0.0381-0.04233c0.02117-0.01693 0.0381-0.03387 0.04657-0.04657 0-0.0042 0.0085-0.0127 0.02963-0.0254l0.13123-0.14393c0.0127-0.0042 0.03387-0.03387 0.05503-0.0508l0.0254-0.02963 0.03387-0.02963 0.0508-0.05927 0.03387-0.02963h-0.06773l-0.127 0.1143-0.24553 0.25823c-0.0042 0.0042-0.0381 0.04233-0.11007 0.1143l-0.10583 0.11853c-0.01693 0.0042-0.03387 0.0381-0.0381 0.0381-0.04233 0.04657-0.06773 0.08467-0.08043 0.10583-0.02963 0.0254-0.05927 0.05927-0.0889 0.10583l-0.06773 0.08043-0.07197 0.08467c-0.03387 0.05503-0.06773 0.09737-0.1016 0.13547-0.0042 0.0042-0.03387 0.04657-0.09737 0.127-0.0127 0.01693-0.05927 0.0635-0.13547 0.1397l-0.01693 0.01693c0-0.0127 0.0042-0.02117 0.0042-0.03387 0-0.0085 0-0.0127-0.0042-0.01693l0.0042-0.0254c0-0.02963 0.0042-0.0635 0.01693-0.1016l-0.0042-0.0508c0.0085-0.0085 0.0127-0.02117 0.0127-0.0381l0.0042-0.0085c0-0.0127-0.0042 0 0.0127-0.06773l0.0085-0.05927c0-0.02117 0.0042-0.04657 0.0127-0.08043 0-0.0085 0.0042-0.01693 0.0085-0.02963 0-0.0127 0.01693-0.05503 0.01693-0.07197 0-0.0127 0.0085-0.05927 0.0085-0.0635l0.0042-0.01693c0-0.01693 0.0042-0.03387 0.0085-0.04657 0-0.0127 0.0042-0.04233 0.0042-0.04657l0.01693-0.03387c0.0042-0.0085 0.0127-0.02117 0.01693-0.0381l0.0042-0.0254 0.01693-0.06773c0.0042-0.0127 0.0042-0.0254 0.0085-0.04657l0.0042-0.02963 0.02963-0.09313c0.0085-0.03387 0.0127-0.05927 0.0127-0.0762 0-0.05927-0.0085-0.12277-0.02117-0.19473-0.0127-0.07197-0.0381-0.10583-0.07197-0.10583-0.1016 0-0.17357 0.0254-0.21167 0.07197l-0.0508 0.0508c-0.03387 0.02963-0.11853 0.11853-0.12277 0.1397-0.02117 0.0381-0.0508 0.08043-0.0889 0.11853-0.0085 0.01693-0.0508 0.09313-0.08043 0.12277l-0.04233 0.0508c-0.02117 0.02117-0.0381 0.04233-0.04233 0.05927-0.0042 0.0127-0.0127 0.0254-0.02963 0.04233 0 0.0042-0.0085 0.01693-0.02117 0.02963-0.01693 0.03387-0.0254 0.0508-0.02963 0.0508-0.01693 0.0127-0.03387 0.0254-0.04657 0.04657-0.0042 0.0042-0.0254 0.0381-0.0381 0.0508l-0.04657 0.06773c-0.0127 0.0254-0.0508 0.07197-0.10583 0.1397v-0.029539c0-0.01693 0-0.02963 0.0042-0.0381 0.0042-0.01693 0.0085-0.0381 0.0085-0.05927l0.02963-0.0889 0.02117-0.1143c0-0.03387 0.03387-0.13123 0.03387-0.16087l0.03387-0.13547c0-0.01693 0.0042-0.0508 0.0042-0.0635 0-0.02117-0.0085-0.07197-0.0085-0.0889l-0.0254-0.127c0-0.0042-0.0254-0.05503-0.0254-0.05927 0-0.03387-0.04233-0.08467-0.11007-0.09737-0.0042 0-0.0254-0.0085-0.0381-0.0085-0.0381 0-0.06773 0.0085-0.09737 0.0254-0.0042 0.0042-0.0127 0.02117-0.03387 0.04233l0.02963 0.03387-0.0042 0.12277-0.0508 0.32597-0.03387 0.0889-0.04233 0.254-0.0381 0.14393c0 0.0127-0.0085 0.05503-0.02963 0.11853-0.0042 0.0085-0.0042 0.02117-0.0042 0.03387l-0.02963 0.2159c0 0.0381 0.02117 0.05927 0.05927 0.06773 0.0635 0 0.09313-0.01693 0.09313-0.0508 0-0.0042 0.0254-0.02963 0.05503-0.0508l0.02117-0.0127 0.0381-0.04233 0.14394-0.14394c0.0508-0.0508 0.08043-0.08043 0.08467-0.09313 0.01693-0.01693 0.0381-0.0508 0.0508-0.0635l0.02963-0.0508c0-0.0042 0.0042-0.0042 0.0085-0.0085l0.0127-0.0127c0.0042-0.0042 0.0042-0.0085 0.0042-0.0127l0.0042-0.0085c0.0127-0.0127 0.0254-0.0254 0.02963-0.0381l0.0127-0.01693 0.0042-0.0127 0.03387-0.03387c0-0.0042 0.0085-0.01693 0.0085-0.02117l0.02963-0.04233c0.0085-0.01693 0.0254-0.0381 0.0508-0.05927 0.0127-0.0127 0.0254-0.03387 0.03387-0.05503l0.02117-0.02117c0.0127-0.0254 0.02117-0.04233 0.03387-0.05503l0.0889-0.1143 0.01693-0.03387c0-0.0042 0.0042-0.0085 0.0085-0.01693l0.0085-0.0127 0.01693-0.0254 0.02117-0.0254 0.0042-0.0085c0.0042-0.0127 0.01693-0.02117 0.01693-0.0254l0.08043-0.08043 0.0085-0.01693 0.05927-0.0508c-0.0042 0.02963-0.0085 0.04657-0.0085 0.05503 0 0.0127-0.0085 0.0254-0.0085 0.02963l-0.0042 0.0042c-0.0042 0.0085-0.01693 0.0381-0.02963 0.08467-0.0127 0.03387-0.04233 0.1143-0.03387 0.1143-0.04233 0.1143-0.08043 0.24977-0.1143 0.41063l-0.05503 0.3429-0.0085 0.0381c-0.0042 0.02117-0.0042 0.03387-0.0042 0.0381v0.08043c-0.0042 0.0381-0.0085 0.06773-0.0085 0.0889 0 0.0762 0.02117 0.13123 0.06773 0.16933z"/><path d="m51.084 17.778c-0.0381 0.0381-0.06773 0.07197-0.0889 0.11007l-0.01693 0.0254c-0.0127 0.0127-0.02117 0.0254-0.02117 0.02963-0.02963 0.02963-0.06773 0.0889-0.08043 0.1016-0.0085 0.0085-0.0381 0.04657-0.08467 0.11007l-0.2794 0.3302c-0.0127 0.0127-0.04657 0.0508-0.10583 0.11853-0.05927 0.06773-0.11007 0.11853-0.14817 0.14817-0.0127 0.0127-0.02963 0.02117-0.04233 0.02117s-0.01693 0-0.02117 0.0042l-0.0085-0.0889 0.0085-0.0889 0.0042-0.02963c0.0042-0.0042 0.0042-0.0127 0.0042-0.0254v-0.0254l0.0042-0.02963c0-0.0127 0-0.02117 0.0042-0.03387l0.0042-0.09737 0.0127-0.05503c0.0127-0.02117 0.01693-0.05927 0.01693-0.1143l-0.0042-0.02963c-0.0042-0.0042-0.0042-0.0127-0.0042-0.02117l-0.01693-0.03387c0-0.0042-0.01693-0.0127-0.02117-0.0254-0.0085-0.02117-0.0254-0.02963-0.05503-0.02963l-0.0889-0.0042-0.0381 0.01693-0.02963 0.0254c-0.02117 0.02117-0.03387 0.02963-0.0381 0.03387-0.0127 0.0127-0.01693 0.02117-0.01693 0.03387-0.0042 0.0127-0.0127 0.01693-0.01693 0.02963l-0.0254 0.06773c-0.0381 0.07197-0.0635 0.1143-0.0762 0.13547l-0.02117 0.03387c-0.0042 0.0042-0.01693 0.03387-0.04233 0.08043-0.0254 0.0508-0.04233 0.08043-0.04657 0.08467l-0.02963 0.05927-0.06773 0.09313-0.05503 0.0762c0 0.0042-0.03387 0.0381-0.04657 0.05503s-0.02117 0.0254-0.0254 0.0254l-0.0127 0.0085c-0.0085 0.0042-0.0127 0.0085-0.01693 0.0085-0.0381 0-0.0635-0.02963-0.08043-0.09313-0.0085-0.06773-0.0127-0.12277-0.0127-0.16933v-0.0381c0-0.0127 0.0042-0.05927 0.0042-0.07197 0.0042-0.04657 0.02117-0.12277 0.02117-0.1524l0.01693-0.07197c0.0042-0.01693 0.01693-0.05503 0.0381-0.11853 0-0.0085 0.0042-0.01693 0.0085-0.02963l0.02963-0.07197c0.0085-0.05927 0.0254-0.09737 0.04657-0.11853l0.04233-0.11853c0-0.01693 0.0381-0.05927 0.0381-0.0635l0.04233-0.07197c0.0127-0.0127 0.01693-0.02117 0.02117-0.0254l0.02117-0.0254c0.05927-0.0762 0.1016-0.09737 0.09313-0.09737l0.0508-0.0127h0.0127l0.0085-0.0042c0.02963 0 0.0508 0.02963 0.06773 0.09313l0.0042 0.0381c0 0.02963-0.0085 0.05503-0.0254 0.07197l-0.0254 0.0254c-0.0042 0.02117-0.02117 0.03387-0.04657 0.04233l-0.0508 0.0127c-0.03387 0.0127-0.0508 0.0254-0.0508 0.04657 0 0.0254 0.0085 0.0381 0.02963 0.0381 0.02117 0 0.07197-0.0254 0.07197-0.04233l0.04233-0.03387c0.01693-0.01693 0.05503-0.04233 0.07197-0.05927 0.02117-0.02117 0.03387-0.0381 0.0381-0.05503l0.0085-0.01693c0-0.0042 0.0042-0.0085 0.0085-0.02117v-0.0508l-0.0127-0.02963-0.03387-0.04657-0.06773-0.0381c-0.02963-0.01693-0.0635-0.0254-0.1016-0.0254h-0.04233c-0.10583-0.0127-0.22013 0.08043-0.23707 0.0889l-0.11005 0.10574c-0.0254 0.0254-0.07197 0.08043-0.0762 0.08467l-0.0254 0.0381c-0.02117 0.02963-0.0508 0.0762-0.08043 0.1397l-0.0085 0.01693c0 0.0042-0.0042 0.01693-0.01693 0.0381l-0.0127 0.03387-0.0254 0.0508-0.0508 0.16087c-0.0127 0.02963-0.02117 0.11007-0.02963 0.23707v0.1778c0.0042 0.01693 0.0085 0.04233 0.0085 0.04657l0.0127 0.05927c0 0.0127 0.0042 0.0254 0.0127 0.0381l0.0127 0.0254 0.02117 0.0508c0.0127 0.02963 0.0254 0.05503 0.04657 0.06773 0.0042 0 0.0127 0.0042 0.02963 0.01693l0.0254 0.01693 0.02963 0.0085c0.0127 0 0.04657 0.0127 0.0508 0.0127l0.0381-0.0127c0.04657-0.0127 0.08467-0.02963 0.10583-0.04233l0.01693-0.0127 0.05503-0.03387 0.04657-0.0635 0.0127-0.01693c0.093127-0.097403 0.14393-0.1736 0.15239-0.2244l0.08467-0.14393c0-0.0042 0.0085-0.0254 0.02117-0.0381l0.0508-0.09737v0.05503c0 0.0127 0 0.01693-0.0042 0.02117l0.0042 0.17357c0 0.0381 0.0042 0.0762 0.01693 0.1143 0.0254 0.0889 0.06773 0.14393 0.127 0.1651l0.0127 0.0085c0.0042 0 0.01693 0.0042 0.02117 0.0042 0.05503 0 0.09313-0.0042 0.1143-0.0085l0.02117-0.0042c0-0.0042 0.01693-0.01693 0.02963-0.02117l0.0127-0.0042c0.0127-0.02117 0.06773-0.0508 0.07197-0.0635l0.0508-0.0508c0.01693-0.02117 0.0381-0.04657 0.0508-0.05927 0.0127-0.01693 0.06773-0.08467 0.0889-0.10583l0.04233-0.0508c0.0381-0.0508 0.03387-0.02117 0.06773-0.08043l0.08467-0.09313c0.0127-0.0127 0.01693-0.01693 0.01693-0.02117l0.02963-0.03387c0.02117-0.01693 0.0381-0.0381 0.0508-0.0635l0.18627-0.23709c0.0127-0.0127 0.0254-0.02963 0.0381-0.0508s0.05927-0.0762 0.13123-0.16087c0.03387-0.0254 0.05503-0.04657 0.05927-0.06773l0.0635-0.06773 0.07197-0.0889h-0.06773z"/><path d="m52.775 17.846-0.07197 0.07197c-0.04657 0.04657-0.11007 0.09737-0.1905 0.14817-0.03387 0.02117-0.09737 0.06773-0.127 0.0889l-0.04233 0.0381c-0.0381 0.0381-0.03387 0.03387-0.08043 0.05927l-0.19473 0.1397-0.01693 0.0127c-0.0127 0.0085-0.01693 0.0127-0.02117 0.0127-0.0042 0.0042-0.01693 0.0085-0.02963 0.01693l-0.02117 0.01693c-0.02117 0.0042-0.04233 0.02117-0.0635 0.04233l-0.04233 0.01693-0.0762 0.04233c-0.0381 0.02117-0.13123 0.05927-0.1524 0.07197l-0.10583 0.05503c-0.0254 0.0042-0.05503 0.01693-0.09313 0.0381-0.02963 0.0127-0.0508 0.02117-0.05927 0.0254l-0.08043 0.02963c-0.04233 0-0.06773-0.04233-0.0762-0.127 0-0.02963-0.0042-0.05503-0.0085-0.11007v-0.0762c0-0.0127 0-0.02117-0.0042-0.02963v-0.0127l0.0042-0.0508c0-0.0042 0-0.0127 0.0042-0.03387l0.0085-0.03387c0-0.0127 0.0042-0.04233 0.0085-0.08043l0.02117-0.12277c0.0127-0.06773 0.0254-0.1143 0.0381-0.13547l0.02963-0.08467 0.01693-0.0508 0.0381-0.0762 0.01693-0.03387c0.0085-0.02117 0.02963-0.0381 0.02963-0.04657-0.0042-0.0042 0.02117-0.03387 0.07197-0.08467 0.02963-0.03387 0.0635-0.05503 0.10583-0.0635 0.0127 0 0.0254-0.0042 0.04233-0.0085 0.0381 0.0127 0.0889 0.0889 0.09313 0.127 0 0.05927-0.04233 0.11007-0.13123 0.14817-0.0127 0.0127-0.01693 0.01693-0.01693 0.02117 0 0.02963 0.0127 0.04233 0.04233 0.04233 0.0042 0 0.02963-0.0127 0.06773-0.0381 0.03387-0.01693 0.1016-0.127 0.1016-0.18203l-0.01693-0.08043c-0.0127-0.0381-0.09313-0.1016-0.14817-0.1143-0.0042-0.0042-0.02963-0.0042-0.0762-0.0042-0.0635 0-0.1143 0.02117-0.13547 0.0254-0.04657 0.02117-0.07197 0.03387-0.08043 0.0381-0.0127 0.0042-0.09737 0.05503-0.11853 0.0762l-0.0762 0.0889c0 0.0085-0.01693 0.04233-0.0508 0.09737l-0.05503 0.0889c-0.0042 0.0254-0.01693 0.05503-0.0381 0.0889l-0.02963 0.06773c0 0.0127-0.0085 0.02963-0.02117 0.05927l-0.02963 0.0635-0.0127 0.04233v0.02963c-0.0042 0.02117-0.0042 0.03387-0.0042 0.04657-0.0042 0.01693-0.0042 0.0381-0.0042 0.0635v0.07197c0.0042 0.0254 0.0042 0.04657 0.0042 0.06773 0.0042 0.03387 0.0042 0.05927 0.0042 0.0762 0.0085 0.04657 0.01693 0.07197 0.02117 0.08043l0.02117 0.04233 0.0085 0.0085c0.0042 0.0042 0.0042 0.0085 0.0042 0.0127 0.0042 0.0127 0.0127 0.0381 0.03387 0.0762 0.0127 0.0127 0.02963 0.0508 0.04233 0.05503 0.0381 0.0254 0.0762 0.04233 0.11007 0.04657 0.0042 0 0.0085 0.0042 0.02117 0.0085 0.0042 0.0042 0.01693 0.0042 0.03387 0.0042 0.04657 0 0.1016-0.0127 0.16087-0.03387l0.19895-0.080433c0.0042 0 0.0254-0.0127 0.05927-0.03387 0.01693-0.0085 0.02117-0.02117 0.02963-0.02117l0.0381-0.01693 0.0635-0.04233 0.0635-0.02963c0.0127-0.0042 0.03387-0.0085 0.05503-0.02117l0.1778-0.127c0-0.0042 0.01693-0.0127 0.05503-0.03387l0.05503-0.02963 0.04233-0.0381 0.09313-0.05927c0.04657-0.02963 0.0762-0.0508 0.0889-0.06773 0.01693-0.0127 0.0635-0.0508 0.08043-0.0635 0.0042 0 0.0127-0.0085 0.03387-0.02963l0.1143-0.0762c0.0508-0.02963 0.09313-0.0635 0.12277-0.10583l0.1524-0.14393c0.0127-0.0042 0.05503-0.0381 0.127-0.10583l0.09313-0.08467 0.03387-0.0381 0.03387-0.02963h-0.06773l-0.12277 0.11007-0.1143 0.0889-0.05503 0.05503z"/><path d="m54.407 17.689c-0.0127 0.0127-0.03387 0.03387-0.05503 0.0635l-0.25823 0.31327c-0.0254 0.02963-0.0762 0.0889-0.14817 0.1778-0.02117 0.04657-0.0889 0.09313-0.09313 0.10583l-0.04657 0.05503c-0.038104 0.04657-0.07197 0.08467-0.11007 0.11007l-0.02963 0.0254c-0.0085 0.0085-0.12277 0.13123-0.13123 0.13547l-0.04657 0.04657-0.09313 0.07197-0.07197 0.05503c-0.0042 0.0042-0.0508 0.02117-0.0635 0.03387-0.02963 0.02117-0.05927 0.03387-0.08467 0.03387h-0.0127l-0.0042-0.0042c-0.02117-0.02117-0.0381-0.0381-0.0508-0.05927-0.0085-0.01693-0.01693-0.0635-0.0254-0.0762-0.0042 0-0.0085-0.0254-0.0085-0.07197 0-0.0127-0.0127-0.09737-0.01693-0.1016 0-0.02117-0.0042-0.05503-0.0085-0.09313 0-0.0042 0-0.0085-0.0042-0.02117v-0.0762l0.0085-0.1016c0.0127-0.18627 0.04233-0.3048 0.08043-0.35137l0.05927-0.0127 0.05503-0.0254c0.02963-0.0127 0.04657-0.0254 0.0508-0.02963l0.0127-0.0127c0.0254-0.0254 0.04233-0.0381 0.0508-0.0381 0.0127-0.02117 0.02963-0.03387 0.04657-0.04233l0.0635-0.05503 0.01693-0.0254c0.01693-0.02117 0.02963-0.04657 0.04233-0.07197 0.02117-0.02963 0.03387-0.05503 0.03387-0.08467 0-0.0635-0.02963-0.1016-0.08467-0.12277l-0.029661-0.004273c-0.0127-0.0042-0.0254-0.0042-0.04657-0.0042-0.07197 0-0.2413 0.08043-0.31327 0.13547-0.08467 0.07197-0.1778 0.2032-0.27517 0.39793v0.0085l-0.0042 0.0042c-0.0127 0.02963-0.01693 0.04657-0.01693 0.0508l-0.0085 0.0254c0 0.0042-0.0042 0.01693-0.0085 0.03387-0.0042 0.0042-0.0042 0.0127-0.0042 0.0254l-0.0254 0.0762v0.0254c0 0.02117-0.0042 0.04233-0.0127 0.06773v0.1143c0 0.15663 0.02117 0.27093 0.0635 0.33867l0.05503 0.08467 0.0635 0.0762 0.02117 0.02117c0.0127 0.0127 0.02117 0.02117 0.0254 0.02117l0.02963 0.01693c0.0085 0 0.03387 0.0254 0.04233 0.0254h0.04233c0.04233 0 0.08043-0.0042 0.11007-0.0085l0.02117-0.0085 0.0635-0.01693 0.0635-0.04657 0.01693-0.0127c0.11853-0.0762 0.18627-0.13547 0.20743-0.17357l0.12277-0.1143c0.0042-0.0042 0.01693-0.0254 0.02963-0.02963l0.20743-0.21167 0.08467-0.09737 0.07197-0.09313 0.0127-0.01693c0.04657-0.05503 0.07197-0.08467 0.07197-0.0889l0.088904-0.10581c0.0381-0.0381 0.07197-0.08043 0.1016-0.12277l0.05503-0.0635 0.0254-0.02117 0.16087-0.17357 0.03387-0.02963h-0.06773l-0.10583 0.09737zm-0.89747-0.2032 0.0042 0.0635-0.0042 0.02963-0.02963 0.06773c-0.0042 0.01693-0.05503 0.0635-0.05927 0.08043-0.02117 0.01693-0.0635 0.0508-0.13123 0.09737l-0.05927 0.0381c-0.0127 0.0085-0.0254 0.0127-0.0381 0.0127h-0.0635l0.03387-0.11853c0.0127-0.0127 0.01693-0.02117 0.01693-0.02963l0.0381-0.0762 0.0085-0.0127 0.01693-0.0254c0.0381-0.0381 0.0085-0.0381 0.0889-0.09313l0.0381-0.0254c0.0042 0 0.02963-0.0127 0.04657-0.01693l0.01693-0.0085c0.0042 0 0.03387 0.0042 0.0381 0.0042z"/><path d="m54.522 18.811c-0.0127 0-0.0381 0.0127-0.08043 0.0381-0.04233 0.02963-0.0635 0.04657-0.0635 0.0508v0.08043c0 0.03387 0.0889 0.11007 0.14393 0.11007 0.05503 0 0.09313-0.02117 0.12277-0.05927l0.02117-0.03387c0.01693-0.02117 0.0254-0.03387 0.0254-0.0381 0-0.0127-0.0042-0.0254-0.0127-0.04233l-0.02117-0.02963c-0.02963-0.0508-0.0762-0.0762-0.13547-0.0762zm0-0.63923c0.02117 0.0127 0.04657 0.01693 0.0762 0.01693 0.09737 0 0.14817-0.0635 0.14817-0.13123v-0.02117c-0.03387-0.03387-0.05927-0.05503-0.0762-0.0635l-0.0381-0.06773h-0.05927c-0.0381 0-0.05927 0.0042-0.0635 0.0085-0.01693 0.0127-0.04233 0.0254-0.0762 0.04233v0.0762c0 0.0042 0.0085 0.0127 0.02117 0.02117-0.0042 0.0042-0.0042 0.0085-0.0042 0.01693 0 0.0127 0 0.01693 0.0042 0.02117 0.0042 0.02963 0.0085 0.04233 0.0127 0.04233z"/></g></g></svg>
