<?xml version="1.0" encoding="UTF-8"?>
<svg width="83.779mm" height="16.346mm" version="1.1" viewBox="0 0 83.779 16.346" xmlns="http://www.w3.org/2000/svg"><defs><clipPath id="a"><path d="M 0,113.39 H 283.46 V 0 H 0 Z"/></clipPath></defs><g transform="translate(-106.7 -76.859)"><g transform="translate(57.124 -73.47)"><g transform="matrix(.35278 0 0 -.35278 41.471 178.92)"><g clip-path="url(#a)"><g transform="translate(23.644,37.152)"><path d="m0 0c0-0.348 0.309-0.541 0.965-0.541h0.618c0.386 0 0.618 0.039 0.695 0.078l1.08 0.309c0.039 0 0.271 0.115 0.695 0.308 0.425 0.232 0.657 0.348 0.696 0.386 0.733 0.464 1.196 0.695 1.814 1.39l1.505 1.506c0.618 0.579 1.043 1.003 1.313 1.351 0 0.038 0.038 0.077 0.077 0.115 0.116 0.117 0.155 0.194 0.155 0.233l0.849 1.08c0.309 0.387 0.54 0.733 0.733 1.081l0.425 0.811 0.734 1.158c0.231 0.27 0.154 0.502 0.347 0.964-0.386 0-0.579-0.038-0.579-0.153 0-0.039-0.193-0.155-0.618-0.348-0.039 0-0.116-0.039-0.232-0.116l-0.192-0.077c-0.425-0.193-0.58-0.308-0.695-0.308l-0.039-0.039c-0.116 0-0.193-0.04-0.27-0.116l-0.077-0.116-0.271-0.077c-0.617-0.502-1.158-0.811-1.582-0.888-0.348-0.154-0.734-0.425-0.927-0.541l-0.116-0.077-0.811-0.425-0.115-0.115c-0.116-0.155-0.27-0.309-0.502-0.425-0.193-0.039-0.463-0.347-0.618-0.463l-0.656-0.502c-0.077-0.077-0.424-0.155-0.502-0.308-0.232-0.194-0.386-0.348-0.502-0.426l-0.115-0.115c-0.116-0.038-0.734-0.696-0.773-0.734l-0.54-0.541c-0.155-0.038-0.579-0.579-0.618-0.732l-0.386-0.387c-0.309-0.308-0.54-0.617-0.733-0.927l-0.271-0.385c0-0.039-0.038-0.117-0.077-0.232l-0.038-0.154c0-0.039 0.038-0.154 0.077-0.309zm-0.077 1.775c0.116 0.117 1.081 1.314 1.274 1.467 0.579 0.579 0.927 0.927 0.965 1.043 0.27 0.309 1.12 1.003 1.235 1.158 0.309 0.27 0.734 0.54 1.158 0.888l0.811 0.502c0.463 0.386 0.965 0.733 1.544 1.004l0.502 0.231 0.849 0.425c0.155 0.038 0.656 0.425 0.927 0.54l0.618 0.309c0.038 0 0.077 0.039 0.115 0.077 0.039 0.039 0.078 0.078 0.116 0.078l0.309 0.115c0.193 0.077 0.347 0.155 0.386 0.271l0.54 0.115c0.116 0.116 0.464 0.271 1.043 0.541l0.695 0.27c0 0.308 0.115 0.502 0.115 0.772 0 0.348-0.193 1.235-0.193 1.544 0 0.348-0.965 1.158-1.582 1.352l-0.695 0.27c-0.27 0-0.425 0-0.463 0.038-0.155 0.039-0.502 0.077-1.004 0.077-0.271 0-1.004-0.038-1.274-0.038s-0.463 0-0.618 0.038c-0.115-0.115-0.386-0.154-0.849-0.154-0.926 0-1.467 0-1.583 0.039-0.038 0-0.115 0.038-0.154 0.038-0.077 0-0.116 0.039-0.155 0.154l-0.154 0.348-0.039 0.348c0 0.192 0.309 0.733 0.309 0.887l0.734 0.811 0.54 0.85 0.425 0.463c0.347 0.347 0.579 0.541 0.772 0.656l3.474 4.478 1.081 1.621c0.039 0.039 0.849 1.892 1.081 2.278 0.425 0.81 0.772 1.814 1.042 3.011 0 0.078 0 0.155 0.039 0.193 0 0.039 0.038 0.193 0.038 0.232l0.155 1.003c0 0.194 0.115 0.734 0.115 1.043 0 0.232 0 0.424-0.038 0.54-0.116 0.656-0.193 1.043-0.193 1.12-0.039 0.232-0.116 0.386-0.193 0.463-0.27 0.386-0.656 0.579-1.235 0.579-0.347 0-0.926 0.038-1.274 0.038h-0.193c-0.116 0-0.348-0.038-0.386-0.038h-0.348c-0.386-0.116-0.772-0.193-1.119-0.193h-1.004c-0.849 0-1.544 0.077-2.046 0.27-0.386 0.194-0.656 0.348-0.772 0.463l-0.309 0.31c-0.116 0.115-0.308 0.386-0.463 0.501l-0.193 0.154c-0.193 0.194-0.579 1.197-0.579 1.506 0 0.463 0.116 0.927 0.309 1.429l0.347 1.042c0.579 0.965 1.467 1.66 2.586 2.084l0.348 0.155c0.309 0.154 0.618 0.231 0.888 0.231 0.657 0 0.965-0.115 0.965-0.386-0.154-0.116-0.502-0.193-1.042-0.27h-0.849c-0.116-0.116-0.541-0.27-0.58-0.27l-0.386-0.232c-0.463-0.424-0.965-0.656-1.119-0.965-0.193-0.27-0.309-0.502-0.425-0.964l-0.27-1.004c-0.039-0.155-0.077-0.463-0.077-0.965 0-0.425 0.386-1.352 0.695-1.545 1.08-0.811 1.582-1.08 2.779-1.08l1.39 0.038c0.425 0 0.695 0.039 0.849 0.116l3.745 0.502c0.579 0 1.196-0.193 1.853-0.541l0.347-0.154 0.618-0.734c0.27-0.579 0.424-1.081 0.424-1.583 0-1.621-0.193-2.625-0.385-3.165-0.155-0.347-0.464-1.12-0.58-1.428l-0.772-1.853c-0.038-0.155-0.347-0.618-0.386-0.656l-0.154-0.31-0.733-1.389c-0.271-0.54-0.541-0.965-0.811-1.274l-0.734-0.966-0.038-0.077c-0.116-0.154-0.232-0.269-0.232-0.308l-0.579-0.811-0.656-0.85-1.197-1.312c-0.425-0.424-0.733-0.694-0.888-0.811l-0.347-0.424-0.888-0.888c-0.734-0.695-1.197-1.197-1.313-1.506 0.618 0 1.081 0.077 1.39 0.232 0.232 0 0.424 0 0.618 0.039 0.347 0.038 0.579 0.077 0.656 0.077 0.309 0 1.119 0.039 1.467 0.039 0.116 0 0.54-0.039 0.656-0.039l1.158 0.039c0.579-0.078 1.043-0.194 1.351-0.31 0.193-0.077 0.425-0.192 0.657-0.386l0.463-0.347c0.077-0.155 0.502-0.578 0.579-0.849 0.039-0.193 0.116-0.425 0.154-0.733 0.039-0.155 0.077-0.387 0.077-0.735v-0.887c0-0.038-0.038-0.232-0.038-0.347l0.386 0.076c0.193 0 0.579 0.039 1.197 0.116l1.042 0.155c0.579 0 0.849 0.155 1.467 0.155l0.154 0.038c0.155 0.038 0.463 0.115 0.657 0.115 0.231 0.039 0.386 0.039 0.501 0.039l0.464 0.117h0.656c0.039 0 1.081 0.077 1.119 0.077 0.27 0 0.889-0.077 1.892-0.271 0.039 0 0.348-0.077 1.004-0.27 1.428-0.347 2.354-0.811 2.702-1.313 0.116-0.115 0.193-0.308 0.193-0.501v-0.078l-0.039-0.077-0.231 0.039c-0.193 0-0.425 0.192-0.772 0.617-0.039 0.039-0.271 0.232-0.309 0.271-0.116 0-0.579 0.347-0.618 0.347-0.038 0-0.077 0-0.115 0.038-0.039 0-0.657 0.194-1.815 0.541-0.618 0.039-1.197 0.232-1.776 0.271l-1.621-0.116c-0.232 0-0.463-0.039-0.734-0.077-0.154-0.039-0.308-0.078-0.501-0.078l-0.811-0.116c-0.463-0.039-0.733-0.077-0.772-0.077-0.193 0-0.425-0.077-0.695-0.193-0.193-0.116-0.502-0.155-0.888-0.155l-0.116-0.116h-0.154c-0.27-0.115-0.463-0.192-0.579-0.192-0.193 0-0.463-0.116-0.579-0.116s-0.541-0.155-0.541-0.193c-0.27-0.733-0.811-1.544-1.621-2.509-0.039-0.116-0.27-0.348-0.309-0.463-0.425-0.618-0.733-1.082-1.004-1.39l-0.115-0.116c-0.194-0.116-0.502-0.617-1.081-1.274l-0.193-0.193c-0.116-0.154-0.194-0.271-0.309-0.348-0.116-0.115-0.386-0.346-0.463-0.463-0.078-0.154-0.232-0.308-0.502-0.502-0.348-0.424-0.734-0.733-1.081-1.004l-0.579-0.462-0.193-0.155c-1.043-1.004-2.123-1.737-3.204-2.162-0.039 0-0.773-0.308-0.888-0.346-0.965-0.156-1.622-0.233-1.969-0.233l-1.081 0.077c-0.888 0-1.544 0.618-1.544 1.506 0 0.27 0.193 0.656 0.579 1.196" fill="#231f20"/></g><g transform="translate(49.161,64.02)"><path d="m0 0c0-0.309 0-0.54-0.038-0.656 0-0.116-0.078-0.425-0.078-0.54l-0.077-0.618c0-0.039 0-0.078-0.038-0.078 0-0.115 0.038-0.192 0.038-0.308-0.038-0.039-0.038-0.154-0.038-0.271v-0.54c-0.039-0.425-0.078-0.656-0.078-0.733l-0.192-1.468c-0.039-0.347-0.078-0.656-0.078-0.849 0.039-0.385 0.078-0.579 0.078-0.618 0-0.424 0.115-0.617 0.385-0.617l0.309 0.309c0.232 0.27 0.541 0.656 0.888 1.196l0.85 1.197c0.077 0.116 0.231 0.348 0.424 0.772l0.695 1.004c0.077 0.155 0.154 0.27 0.232 0.386l0.579 0.811c0.077 0.077 0.193 0.231 0.308 0.502l0.116 0.116 0.039 0.076c0.039 0.077 0.039 0.116 0.077 0.116 0.116 0.271 0.155 0.386 0.155 0.425l0.038 0.038c0.425 0.889 0.772 1.314 1.119 1.314 0.58 0 0.889-0.078 0.889-0.194 0-0.155 0.077-0.501 0.077-0.695-0.039-0.038-0.039-0.192-0.039-0.425v-0.231c-0.077-0.463-0.116-0.733-0.116-0.773 0-0.153-0.038-0.423-0.038-0.54l-0.077-0.27c-0.039-0.27-0.077-0.501-0.077-0.772v-0.077c0-0.154-0.155-0.888-0.155-1.042 0-0.232-0.038-0.464-0.077-0.657-0.039-0.192-0.039-0.463-0.039-0.811 0-1.814 0.309-2.894 0.888-3.242 0.347 0.155 0.811 0.617 1.467 1.39 0.618 0.733 0.965 1.158 1.081 1.235l2.548 3.011c0.424 0.579 0.695 0.927 0.772 1.004l0.308 0.348c0.117 0.193 0.31 0.423 0.58 0.694 0 0.078 0 0.116 0.038 0.154l0.154 0.233c0.155 0.269 0.58 0.771 1.313 1.544l0.348 0.462 1.235 1.121h0.618l-0.811-0.773c-0.27-0.27-0.425-0.386-0.463-0.425l-0.618-0.656c-0.733-0.927-1.158-1.467-1.274-1.66-0.116-0.192-0.231-0.347-0.348-0.463l-1.698-2.162c-0.116-0.232-0.27-0.425-0.463-0.579l-0.27-0.309c0-0.038-0.039-0.077-0.154-0.193l-0.773-0.849c-0.309-0.541-0.27-0.27-0.618-0.733l-0.385-0.464c-0.193-0.192-0.695-0.811-0.811-0.965-0.116-0.115-0.309-0.348-0.463-0.541l-0.464-0.463c-0.038-0.115-0.656-0.463-0.772-0.656l-0.154-0.038c-0.155-0.039-0.348-0.116-0.348-0.155-0.424 0-0.656 0-0.733 0.039-0.232 0-0.502 0.116-0.85 0.308-0.038 0.039-0.077 0.077-0.192 0.116l-0.31 0.155c-0.192 0.154-0.385 0.425-0.54 0.81l-0.231 0.579c-0.116 0.194-0.193 0.58-0.193 1.121v0.54c0 0.733 0.077 1.466 0.193 2.239 0 0.192 0.038 0.424 0.154 0.617 0.116 0.348 0.155 0.618 0.155 0.811-0.618-0.888-1.043-1.66-1.313-2.278l-0.116-0.154-0.386-0.694-1.737-2.162c-0.116-0.233-0.27-0.387-0.502-0.425l-0.965-0.194-0.733 0.155c-0.194 0-0.271 0.039-0.271 0.155-0.193 0-0.772 0.965-0.888 1.311-0.115 0.387-0.154 0.927-0.154 1.661 0 0.386 0.039 0.849 0.116 1.351 0 0.154 0.038 0.617 0.038 0.772 0 0.039 0.039 0.309 0.039 0.579 0.039 0.618 0.116 1.004 0.193 1.158 0.038 0.464 0.116 1.506 0.155 2.008l0.038 0.54c0 0.116 0 0.231 0.038 0.309 0.039 0.193 0.078 0.386 0.078 0.579 0 0.424-0.039 0.657-0.154 0.657-0.039 0-0.078-0.039-0.117-0.077-0.115-0.117-0.154-0.117-0.154-0.078-0.038-0.039-0.077-0.039-0.116-0.078l-0.154-0.115-0.078-0.154c-0.076-0.077-0.154-0.116-0.192-0.155l-0.386-0.347c-0.039-0.039-0.116-0.039-0.232-0.039v0.193c0 0.038 0.038 0.154 0.077 0.309l0.618 0.579 0.193 0.116c0.116 0.077 0.193 0.115 0.232 0.154 0.038 0 0.424 0.077 0.54 0.077 1.197 0 2.316-1.081 2.316-2.045z" fill="#231f20"/></g><g transform="translate(72.708,77.841)"><path d="m0 0c-0.116-0.271-0.232-0.463-0.309-0.54l-0.116-0.271c-0.038-0.193-0.116-0.347-0.193-0.541l-0.115-0.308c-0.271-0.424-0.541-1.004-0.734-1.66-0.116-0.424-0.193-0.695-0.193-0.734 0.038 0 0.772 0.541 0.888 0.658 0.501 0.423 0.965 0.887 1.39 1.466 1.042 1.351 1.621 2.045 1.66 2.123 0.154 0.193 0.193 0.734 0.308 0.888v0.386c0 0.347-0.077 0.656-0.27 0.888-0.309 0.425-0.54 0.425-0.849-0.039-0.039-0.154-0.232-0.308-0.386-0.502-0.078-0.154-0.116-0.231-0.155-0.231-0.385-0.54 0-0.54-0.54-0.927zm-4.401-23.51c-0.193-0.192-0.849-0.656-1.004-0.81l-0.038-0.039c-0.502-0.579-0.811-0.888-0.927-1.003-0.038-0.078-0.038-0.271-0.038-0.618 0-0.04 0.038-0.078 0.154-0.078h0.27c0.193 0 0.348 0.038 0.386 0.078l0.502 0.308c0.734 0.502 1.544 1.583 2.432 3.281-0.038 0-0.347-0.192-0.849-0.54-0.541-0.347-0.811-0.541-0.849-0.541zm13.743 10.076c0.927 0.656 1.39 1.003 1.429 1.042l1.312 1.004h0.618l-0.811-0.734c-0.193-0.192-0.386-0.347-0.54-0.424l-0.425-0.387c-0.425-0.192-1.081-0.656-1.892-1.427-0.116-0.117-0.695-0.463-0.733-0.502l-1.93-1.39-0.116-0.116c-0.077-0.077-0.155-0.115-0.193-0.115l-2.625-1.969-1.39-1.12c-0.309-0.155-0.502-0.309-0.541-0.425 0-0.038-0.193-0.502-0.193-0.54 0-0.039 0-0.077-0.038-0.116-0.116-0.232-0.193-0.425-0.309-0.54l-0.193-0.309c-0.154-0.27-0.386-0.541-0.424-0.695l-0.078-0.077c0-0.117-0.077-0.271-0.27-0.463l-0.541-0.696-0.849-0.81c-0.116-0.116-0.309-0.271-0.617-0.502-0.695-0.579-1.043-0.85-1.081-0.85l-0.579-0.308c-0.348-0.194-0.58-0.309-0.618-0.309-0.039 0-0.425-0.116-0.695-0.231l-0.231-0.039c-0.194 0-0.773-0.117-0.811-0.117-0.039 0-0.27 0.039-0.54 0.039-0.271 0-0.425 0.232-0.425 0.696 0 0.115 0.386 0.887 0.501 1.042l0.232 0.308c0.348 0.425 0.618 0.696 0.888 0.812l0.81 0.655 1.274 0.695c0.426 0.193 0.734 0.463 0.966 0.811 0.154 0.154 0.347 0.772 0.463 0.888 0.656 1.274 1.081 2.046 1.197 2.355 0.038 0.27 0.347 1.042 0.965 2.277 0.502 0.888 0.772 2.046 0.772 3.475 0 0.424-0.116 0.733-0.309 0.926-0.116 0-0.231-0.115-0.348-0.232l-0.115-0.077c-0.155-0.154-0.657-0.502-0.811-0.694-0.039-0.039-0.154-0.231-0.309-0.348-0.231-0.425-0.424-0.695-0.54-0.81-0.309-0.31-0.502-0.696-0.656-0.966l-0.58-0.888-0.386-0.694c-0.309-0.502-0.502-0.812-0.579-0.927-0.077-0.077-0.27-0.387-0.617-0.927-0.116-0.192-0.348-0.54-0.618-1.042-0.309-0.502-0.463-0.772-0.502-0.81-0.038-0.039-0.232-0.541-0.579-1.467-0.038-0.116-0.193-0.464-0.309-0.58v-0.23l-0.115-0.194c-0.078-0.116-0.116-0.155-0.116-0.193 0-0.115-0.193-0.232-0.579-0.386-0.425-0.154-0.657-0.231-0.734-0.231h-0.463c-0.154 0-0.541 0.54-0.541 0.694 0 0.116 0.387 1.892 0.387 1.892 0.115 0.347 0.27 1.119 0.463 2.316 0.193 1.196 0.27 1.969 0.27 2.239 0 0.154 0.116 0.734 0.116 0.85 0 0.269 0.038 0.502 0.154 0.694l0.271 1.583c0.038 0.038 0.077 0.347 0.115 0.849 0.039 0.155 0.232 0.695 0.27 0.888 0.117 0.579 0.387 1.505 0.773 2.741l0.347 1.043c0 0.038 0.038 0.154 0.116 0.308l0.077 0.232c0 0.193 0.386 1.043 0.386 1.312 0.039 0.271 0.231 0.927 0.618 1.969 0.038 0.116 0.231 0.579 0.579 1.39 0.386 0.964 0.887 1.891 1.505 2.78 0.309 0.463 0.541 0.771 0.695 0.926l0.811 0.81c0.656 0.657 1.544 1.004 2.664 1.004 0.347 0 1.003-0.579 1.119-0.926l0.116-0.424c0.039-0.04 0.039-0.156 0.039-0.271 0-0.154-0.039-0.387-0.039-0.502 0-0.733-0.386-1.467-1.12-2.393-0.386-0.502-0.617-0.811-0.733-0.965 0-0.039-0.348-0.232-0.386-0.348-0.116-0.116-0.232-0.386-0.386-0.54-0.154-0.039-0.232-0.116-0.271-0.155-0.308-0.116-0.656-0.424-1.003-0.888l-0.232-0.154c-0.154-0.116-0.231-0.155-0.231-0.193-0.039-0.039-0.425-0.155-0.464-0.309-0.038-0.038-0.077-0.115-0.077-0.193 0-0.039 0-0.116-0.038-0.155l-0.193-0.424c-0.194-0.27-0.387-0.772-0.541-1.506-0.193-0.733-0.27-1.158-0.308-1.196-0.117-0.426-0.348-0.966-0.657-2.085 0-0.039-0.116-0.656-0.116-0.695-0.193-0.386-0.27-0.849-0.309-1.39-0.039-0.038-0.309-0.848-0.309-0.965 0-0.039 0-0.116-0.038-0.154l-0.271-1.081c-0.154-0.772-0.27-1.429-0.347-1.969-0.27-1.351-0.424-2.046-0.424-2.085 0.116 0 0.463 0.541 1.119 1.621 0.502 0.502 0.811 1.391 1.081 1.739 0.425 0.579 0.695 0.925 0.772 1.003 0.348 0.656 0.695 1.158 1.043 1.505 0.192 0.309 0.385 0.54 0.579 0.734 0.424 0.617 0.81 0.965 1.157 1.042l0.155 0.077c0.039 0.039 0.386 0.116 1.004 0.27l0.501-0.077c0.309-0.347 0.464-0.502 0.502-0.54 0.425-0.464 0.85-1.506 0.85-2.085 0-0.424 0.038-0.849 0.038-0.965 0-0.232-0.154-0.964-0.424-2.239l-0.386-1.274c-0.039-0.115-0.078-0.232-0.116-0.27-0.039-0.077-0.116-0.154-0.155-0.231 0-0.039-0.039-0.116-0.077-0.233l1.081 0.773 0.927 0.81 0.926 0.657 1.506 1.197c0.27 0.192 0.617 0.386 0.965 0.578l0.811 0.579c0.154 0.116 0.308 0.271 0.424 0.387z" fill="#231f20"/></g><g transform="translate(91.856,52.285)"><path d="m0 0c-0.425 0.348-0.618 0.85-0.618 1.544 0 0.193 0.039 0.463 0.077 0.81v0.734c0 0.039 0 0.155 0.039 0.348l0.077 0.347 0.502 3.127c0.309 1.467 0.656 2.702 1.042 3.744-0.077 0 0.193 0.734 0.309 1.043 0.116 0.425 0.232 0.695 0.27 0.772l0.039 0.039c0 0.038 0.077 0.154 0.077 0.269 0 0.077 0.039 0.233 0.078 0.502l-0.541-0.463-0.077-0.154-0.733-0.733c0-0.039-0.117-0.116-0.155-0.232l-0.039-0.077-0.193-0.232-0.154-0.232-0.077-0.115c-0.039-0.078-0.078-0.116-0.078-0.155l-0.154-0.309-0.811-1.042c-0.115-0.116-0.192-0.27-0.308-0.502l-0.194-0.193c-0.077-0.193-0.192-0.386-0.308-0.502-0.232-0.192-0.386-0.386-0.464-0.54l-0.27-0.386c0-0.039-0.077-0.154-0.077-0.193l-0.309-0.309-0.038-0.116-0.116-0.154c-0.039-0.117-0.155-0.232-0.271-0.347l-0.038-0.078c0-0.038 0-0.077-0.039-0.115l-0.115-0.117c-0.039-0.039-0.078-0.039-0.078-0.077l-0.27-0.463c-0.116-0.116-0.309-0.424-0.463-0.579-0.039-0.116-0.309-0.386-0.772-0.849l-1.313-1.313-0.347-0.386-0.193-0.116c-0.271-0.193-0.502-0.425-0.502-0.463 0-0.309-0.27-0.463-0.85-0.463-0.347 0.078-0.54 0.27-0.54 0.618l0.27 1.968c0 0.116 0 0.232 0.039 0.309 0.193 0.579 0.27 0.965 0.27 1.081l0.348 1.312 0.386 2.317 0.308 0.81 0.464 2.973 0.038 1.119-0.27 0.31c0.193 0.192 0.27 0.347 0.309 0.386 0.27 0.154 0.541 0.231 0.888 0.231 0.115 0 0.309-0.077 0.347-0.077 0.618-0.116 1.004-0.579 1.004-0.888 0-0.039 0.232-0.502 0.232-0.541l0.231-1.158c0-0.154 0.077-0.617 0.077-0.811 0-0.115-0.038-0.424-0.038-0.579l-0.309-1.235c0-0.27-0.309-1.157-0.309-1.467l-0.193-1.042-0.27-0.81c0-0.194-0.038-0.386-0.077-0.541-0.039-0.078-0.039-0.193-0.039-0.347v-0.271c0.502 0.618 0.85 1.042 0.965 1.274l0.425 0.618c0.116 0.115 0.309 0.425 0.347 0.463 0.116 0.193 0.271 0.308 0.425 0.425 0.039 0 0.116 0.154 0.27 0.463 0.116 0.116 0.193 0.231 0.193 0.27 0.155 0.154 0.232 0.271 0.27 0.386 0.039 0.154 0.193 0.348 0.387 0.541l0.385 0.463c0.27 0.27 0.657 0.965 0.734 1.119 0.347 0.348 0.617 0.734 0.811 1.081 0.038 0.193 0.81 1.004 1.119 1.274l0.463 0.463c0.348 0.425 1.004 0.657 1.931 0.657 0.309 0 0.54-0.309 0.656-0.965 0.116-0.657 0.193-1.236 0.193-1.776 0-0.154-0.038-0.386-0.116-0.695l-0.27-0.849-0.039-0.27c-0.038-0.194-0.038-0.31-0.077-0.425l-0.155-0.618-0.038-0.232c-0.039-0.154-0.116-0.27-0.154-0.346l-0.155-0.31c0-0.039-0.038-0.308-0.038-0.425-0.039-0.115-0.077-0.269-0.077-0.423l-0.039-0.156c0-0.038-0.078-0.463-0.078-0.579 0-0.154-0.154-0.54-0.154-0.655-0.039-0.116-0.077-0.193-0.077-0.271-0.077-0.309-0.116-0.541-0.116-0.733l-0.077-0.541c-0.154-0.617-0.116-0.502-0.116-0.617l-0.038-0.078c0-0.154-0.039-0.27-0.117-0.347l0.039-0.463c-0.115-0.348-0.154-0.657-0.154-0.927l-0.039-0.232c0.039-0.038 0.039-0.077 0.039-0.153 0-0.117-0.039-0.194-0.039-0.31l0.154 0.154c0.695 0.696 1.12 1.12 1.236 1.275 0.579 0.733 0.849 1.119 0.888 1.158 0.309 0.347 0.618 0.733 0.926 1.235l0.657 0.772 0.617 0.733c0.271 0.425 0.541 0.735 0.811 0.966 0.116 0.192 0.347 0.54 0.733 0.965 0.039 0 0.194 0.308 0.348 0.347l0.965 1.082c0.656 0.655 0.965 1.003 1.004 1.042l2.239 2.354 1.158 1.043h0.618l-0.309-0.271-0.463-0.541-0.309-0.269-0.232-0.271c-0.193-0.154-0.386-0.424-0.502-0.463l-1.197-1.312c-0.192-0.116-0.27-0.193-0.27-0.232-0.077-0.116-0.231-0.27-0.424-0.425l-0.348-0.386c-0.116 0-0.27-0.154-0.463-0.502-0.078-0.115-0.502-0.579-1.274-1.35l-2.432-2.934c-0.116-0.193-0.656-0.812-0.849-1.158-0.039-0.039-0.271-0.271-0.309-0.387l-0.926-1.273c-0.078-0.078-0.387-0.232-0.696-0.773l-0.385-0.425c-0.271-0.346-0.464-0.502-0.502-0.54-0.155-0.039-0.695-0.733-0.966-0.733-0.038 0-0.077 0-0.115-0.039l-0.116-0.077-0.232-0.116h-0.386l-0.116 0.038h-0.154c-0.077 0.04-0.155 0.04-0.232 0.04z" fill="#231f20"/></g><g transform="translate(107.53,70.97)"><path d="m0 0 0.193 0.348c0.734 0.964 1.12 1.544 1.197 1.659l0.734 1.12c0 0.038 0.27 0.424 0.27 0.501 0.347 0.657 0.656 1.004 1.003 1.004 0.155 0 0.232-0.077 0.232-0.193v-0.347c0-0.116 0-0.194-0.039-0.232 0-0.039-0.115-0.116-0.115-0.154-0.078-0.231-0.078-0.387-0.193-0.541-0.464-0.811-1.004-1.583-1.622-2.354l-0.308-0.309c-0.039-0.039-0.078-0.116-0.078-0.232-0.039-0.116-0.115-0.193-0.193-0.27l-0.154-0.154-0.116-0.156c-0.039-0.115-0.116-0.192-0.154-0.269l-0.039-0.116c0-0.038-0.038-0.117-0.038-0.155-0.039-0.116-0.232-0.193-0.58-0.193-0.347 0-0.54 0.077-0.54 0.231 0 0.194 0.193 0.464 0.54 0.812m8.146-8.725c0.116 0.194 0.309 0.424 0.579 0.695 0 0.078 0 0.116 0.038 0.154l0.155 0.232c0.193 0.309 0.618 0.849 1.312 1.582l0.309 0.425 1.235 1.12h0.618l-0.309-0.27-0.463-0.541c-0.193-0.193-0.308-0.309-0.425-0.347l-0.656-0.695c-0.733-0.927-1.158-1.467-1.274-1.66s-0.231-0.347-0.347-0.463l-1.699-2.162c-0.115-0.232-0.27-0.425-0.463-0.579l-0.27-0.309c0-0.038-0.039-0.077-0.154-0.193l-0.773-0.849c-0.309-0.541-0.27-0.27-0.618-0.733l-0.385-0.464c-0.193-0.193-0.695-0.811-0.811-0.965-0.116-0.115-0.309-0.348-0.463-0.541l-0.464-0.463c-0.347-0.425-0.54-0.694-0.579-0.771l-1.698-1.931-0.811-0.811c-0.502-0.502-0.811-0.733-0.965-0.733-0.656-0.348-1.119-0.541-1.467-0.541-0.27 0-0.463 0.039-0.579 0.155l-0.232 0.115c-0.733 0.54-1.196 1.12-1.312 1.699-0.116 0.347-0.155 0.926-0.155 1.738v0.386c0 0.579 0 1.081 0.039 1.466 0 0.155 0.193 1.004 0.193 1.159l0.193 0.926c0.116 0.618 0.347 1.505 0.772 2.703 0.039 0.192 0.27 1.119 0.425 1.466 0.038 0.078 0.154 0.386 0.309 0.888 0.154 0.502 0.231 0.811 0.27 0.927l0.115 0.269c0.58 1.583 1.197 2.626 1.815 3.128 0.154 0.038 0.579 0.27 0.888 0.27 0.193 0 0.811-0.502 0.811-0.656v-0.618c0-0.232-0.039-0.424-0.078-0.541-0.386-0.964-0.617-1.583-0.733-1.891l-0.463-1.236c-0.271-0.617-0.425-1.737-0.541-2.085-0.077-0.385-0.154-0.655-0.231-0.771l-0.232-1.197c-0.039-0.038-0.193-0.579-0.193-0.695l-0.116-0.579-0.077-0.193c-0.077-0.115-0.116-0.192-0.116-0.232l-0.039-0.231c-0.038-0.193-0.076-0.27-0.076-0.309-0.117-0.502-0.194-0.887-0.309-1.158 0-0.039-0.387-1.698-0.387-1.737l-0.193-1.081c-0.038-0.116-0.038-0.271-0.038-0.463 0-0.386 0.116-0.734 0.308-1.004h0.271c0.463 0 0.81 0.154 1.042 0.425 0.116 0.038 0.54 0.386 0.618 0.463 0.038 0 0.54 0.502 0.579 0.502 0.425 0.54 0.734 0.926 0.926 1.12 0.425 0.579 0.888 1.08 1.352 1.582 1.389 1.66 2.2 2.587 2.393 2.741l2.548 3.011c0.424 0.579 0.695 0.927 0.772 1.004z" fill="#231f20"/></g><g transform="translate(134.2,64.638)"><path d="m0 0v0.734c0 0.193-0.039 0.463-0.115 0.888 0 0.463-0.426 1.892-1.043 2.008l-0.115-0.116c-0.117-0.117-0.155-0.386-0.155-0.888v-1.467l0.076-0.541c0-0.038 0-0.116 0.04-0.193v-0.154l0.115-0.541 0.426-1.197 0.423-0.81c0.078-0.077 0.155-0.309 0.271-0.309v0.116c0 0.077 0 0.116 0.038 0.155l0.078 0.462v0.85c0.038 0.038 0.038 0.115 0.038 0.193zm9.381 1.815h0.618l-0.31-0.27-0.386-0.541-0.193-0.154c-0.153-0.27-0.54-0.618-0.579-0.657l-0.385-0.463-0.425-0.424c-0.194-0.194-0.348-0.386-0.463-0.54l-0.387-0.271c-0.348-0.27-0.578-0.464-0.617-0.54l-0.889-0.734c-0.037-0.038-0.115-0.077-0.192-0.116l-0.888-0.656c-0.039-0.039-0.347-0.154-0.387-0.193-0.23-0.154-0.462-0.115-0.539-0.271l-0.619-0.154c-0.154-0.115-0.269-0.154-0.385-0.154-0.501 0-0.81 0-1.003 0.039-0.194 0-0.581 0.038-0.735 0.038l-0.501 0.155c-0.116-0.193-0.27-0.426-0.386-0.772-0.078-0.194-0.116-0.348-0.154-0.386l-0.232-0.31-0.387-0.849c0-0.038-0.076-0.115-0.076-0.154-0.656-1.236-1.313-2.201-1.969-2.857l-0.193-0.154-0.579-0.502c-0.117-0.077-0.155-0.115-0.193-0.115l-0.772-0.387c-0.038 0-0.077-0.038-0.155-0.115-0.039-0.039-0.424-0.233-0.657-0.233h-0.154c-0.115 0-0.424-0.115-0.578-0.038-0.154 0-0.927 0.038-0.965 0.154l-0.387 0.117-0.386 0.385c-0.116 0.155-0.193 0.232-0.231 0.271-0.116 0.115-0.27 0.308-0.425 0.502-0.231 0.425-0.385 0.81-0.425 1.235 0 0.154-0.193 0.734-0.193 0.849-0.115 0.811-0.154 1.274-0.154 1.312l0.039 1.159c0 0.039 0.076 0.309 0.076 0.424 0.193 1.197 0.464 2.085 0.773 2.625l0.811 1.467c0 0.077 0.115 0.193 0.309 0.348l0.193 0.231c0.154 0.077 0.309 0.271 0.501 0.579 0.193 0.271 0.386 0.464 0.579 0.579 1.043 0.657 1.969 1.004 2.779 1.004 0.194 0 0.271-0.077 0.271-0.27v-0.154c0-0.039 0-0.078-0.038-0.194v-0.115c0-0.502-0.116-0.773-0.309-0.773l-0.078-0.115c-0.154-0.155-0.348-0.464-0.502-0.618-0.269-0.269-0.54-0.617-0.771-1.042-0.271-0.502-0.541-1.042-0.773-1.621l-0.116-0.348c-0.038-0.193-0.115-0.386-0.192-0.541l-0.386-1.775c0-0.116-0.154-0.927-0.154-1.081v-0.965c0-0.27-0.039-0.811-0.039-1.081 0-0.039 0.039-0.154 0.039-0.193 0-0.116 0.038-0.309 0.038-0.348 0-0.27 0.116-0.772 0.116-0.811 0-0.346 0.386-0.848 1.66-0.154 0.154 0.077 0.424 0.31 0.849 0.656 0.077 0.039 0.192 0.156 0.385 0.348l0.155 0.193c0.347 0.425 0.81 1.159 1.39 2.123l0.386 0.657c0.271 0.502 0.464 0.772 0.501 0.849l0.31 0.502c0 0.115 0.038 0.232 0.116 0.347l0.193 0.579-0.502 0.348c-0.193 0.116-0.271 0.27-0.309 0.424l-0.271 0.348c-0.424 0.425-0.694 0.965-0.848 1.582l-0.04 0.039v0.116l-0.038 0.078-0.039 0.077v0.077l-0.077 0.54c0 0.154 0 0.27-0.038 0.348 0 0.154-0.039 0.617-0.039 0.81 0 0.348 0.039 0.734 0.115 1.081l0.078 0.425c0 0.231 0.116 0.231 0.194 0.54 0.192 0.579 0.539 0.888 1.003 1.004l0.231 0.039 0.309-0.193c0.425-0.271 0.618-0.541 0.656-0.85l0.078-0.154 0.038-0.077c0.039-0.039 0.039-0.078 0.039-0.116l0.115-0.116c0.04-0.116 0.078-0.348 0.117-0.502l0.039-0.154c0-0.116 0.076-0.348 0.115-0.502l0.039-0.116c0.038-0.116 0.038-0.309 0.038-0.54v-0.271c0.038-0.193 0.077-0.386 0.077-0.54l0.039-0.541c0-0.038 0-0.115-0.039-0.154 0-0.038 0-0.115-0.039-0.232v-0.154c0-0.039-0.038-0.193-0.038-0.231v-0.541c-0.038-0.116-0.077-0.194-0.077-0.27v-0.154c0-0.078 0-0.116 0.039-0.155-0.039-0.039-0.039-0.193-0.039-0.502l-0.077-0.424c0.038 0 0.231-0.233 0.27-0.233 0.155-0.038 0.27-0.077 0.309-0.077l1.235-0.115 0.271 0.077 0.269 0.038c0.155 0.039 0.271 0.077 0.348 0.116 0.077 0 0.193 0.038 0.348 0.155l0.269 0.193 0.502 0.231c0.039 0.039 0.233 0.194 0.387 0.309l0.077 0.039c0.192 0.115 0.501 0.386 0.927 0.734l1.389 1.196c0.308 0.387 0.927 0.966 1.197 1.312z" fill="#231f20"/></g><g transform="translate(145.9,67.92)"><path d="m0 0c0.309 0.348 0.502 1.698 0.617 4.054l-0.193 0.346c-0.386 0-0.578-0.193-0.578-0.579 0-0.038-0.155-0.54-0.155-0.656-0.193-0.617-0.078-0.386-0.078-0.656v-0.193c0-0.155-0.039-0.772-0.039-0.926 0-0.348 0.155-0.811 0.426-1.39m1.66-16.522c0-0.734 0.154-1.082 0.424-1.082l0.888 0.541 0.733 0.926 0.695 0.888c0.078 0.039 0.309 0.387 0.695 1.042l1.158 1.969c0.193 0.193 1.66 2.626 1.776 2.741l0.076 0.116 1.237 1.815 0.115 0.231 0.039 0.038c0.154 0.271 0.309 0.464 0.463 0.618l0.734 1.198c0.038 0.154 0.116 0.269 0.155 0.346l0.502 0.656 0.076 0.117c0.308 0.656 0.308 0.347 0.695 1.004l1.235 1.544 0.386 0.347h0.618l-0.309-0.27-0.888-1.043c0-0.077-0.038-0.154-0.154-0.27l-0.463-0.541-3.204-4.786c-0.116-0.232-0.154-0.348-0.194-0.348l-2.47-3.976c-0.038-0.039-0.27-0.386-0.696-1.042-0.423-0.656-0.656-0.966-0.694-1.004l-0.849-1.235c-0.193-0.502-0.734-1.081-1.621-1.738l-0.425-0.27-0.116-0.077c-0.386-0.27-0.734-0.424-1.043-0.424-0.771 0-0.887 0.27-1.234 0.617-0.387 0.541-0.657 1.158-0.773 1.814-0.116 0.502-0.193 0.965-0.193 1.313v1.119c0 0.425 0.038 0.966 0.154 1.583 0.039 0.348 0.232 1.158 0.271 1.429 0 0.038 0.193 0.848 0.193 0.965 0.039 0.193 0.116 0.579 0.309 1.197 0.115 0.502 0.269 1.196 0.541 2.123l0.23 1.158c-0.038 0-0.076 0.038-0.154 0.115l-0.771 0.541c-0.348 0.463-0.657 0.618-0.965 0.926-0.116 0.155-0.657 0.927-0.965 1.236l-0.426 0.656c0 0.309-0.347 1.12-0.347 1.467v1.776c0 0.115 0.154 0.502 0.501 1.158 0.194 0.425 0.58 0.965 1.198 1.583 0.617 0.386 1.158 0.579 1.582 0.579l0.426-0.27c0.115-0.038 0.231-0.309 0.269-0.773l0.039-0.502v-0.617c0-0.039-0.039-0.231-0.077-0.541l-0.039-0.308c-0.038-0.194-0.077-0.27-0.077-0.309-0.115-0.309-0.194-1.119-0.386-1.467-0.155-0.193-0.193-0.695-0.31-0.733 0.04-0.348 0.464-1.236 1.313-2.664 0.193-0.193 0.541-0.502 0.734-0.695l0.155-0.116c0.039-0.039 0.077-0.077 0.115-0.077l0.154-0.077c0.194-0.116 0.463-0.271 0.502-0.271 0.271-0.154 0.426-0.463 0.426-0.925v-0.581l-0.078-0.192c-0.039-0.116-0.039-0.154-0.039-0.193 0-0.155-0.038-0.309-0.038-0.579 0 0-0.193-0.618-0.348-1.042l-0.192-0.773c-0.155-0.579-0.309-0.656-0.387-1.35l-0.038-0.464-0.194-0.502-0.038-0.193c-0.039-0.27-0.155-0.579-0.155-0.695-0.038-0.154-0.038-0.926-0.153-1.081-0.117-0.579-0.194-1.004-0.194-1.351 0-0.463-0.115-1.583-0.115-1.622z" fill="#231f20"/></g><g transform="translate(167.83,65.758)"><path d="m0 0c-0.039-0.193-0.039-0.309-0.039-0.348 0.193 0.271 0.58 0.85 0.772 1.159l0.193 0.27c0.039 0.039 0.039 0.116 0.078 0.193l0.463 0.695 0.308 0.618 0.309 0.502c0.039 0.115 0.116 0.192 0.193 0.269l0.155 0.155c0.154 0.155 0.386 0.618 0.424 0.656l0.078 0.27 0.193 0.194 0.463 1.004 0.039 0.115 0.54 1.004c0.116 0.348 0.348 0.81 0.656 1.312l0.386 0.927c0.116 0.386 0.232 0.617 0.271 0.734l0.116 0.347c0.038 0.232 0.115 0.386 0.193 0.502l0.191 0.386c0 0.115 0.194 0.425 0.194 0.579l0.039 0.154 0.078 0.155c0.038 0.038 0.076 0.116 0.076 0.231l0.116 0.386v1.12c-0.038 0.039-0.116 0.154-0.385 0.269l-0.271-0.077c-0.347 0-0.927-0.385-0.927-0.733l-0.347-0.579c-0.193-0.309-0.309-0.772-0.463-1.119l-0.617-1.351-0.117-0.27c-0.155-0.31-0.347-0.85-0.463-1.042 0-0.156-0.116-0.387-0.347-0.735l-0.038-0.077-0.039-0.077c-0.155-0.617-0.735-1.506-0.773-1.93l-0.192-0.502c-0.116-0.425-0.233-0.733-0.31-1.004l-0.154-0.656-0.077-0.193c-0.039-0.116-0.077-0.27-0.077-0.386l-0.117-0.309c-0.077-0.154-0.115-0.27-0.115-0.308-0.154-0.734-0.425-1.429-0.58-2.201zm12.082-0.116-0.501-0.502c-0.116-0.115-0.502-0.578-1.158-1.428-0.656-0.888-1.042-1.351-1.081-1.39l-1.699-2.124c-0.116-0.192-0.192-0.269-0.231-0.308l-0.965-1.003-1.468-2.047c-0.154-0.038-0.231-0.115-0.231-0.27l-0.154-0.231c-0.077-0.039-0.348-0.31-0.811-0.85-0.463-0.579-0.734-0.887-0.772-0.964-0.193-0.194-0.309-0.348-0.348-0.386l-0.656-0.657c-0.038-0.155-0.115-0.271-0.232-0.309l-0.347-0.502c-0.076-0.077-0.155-0.192-0.27-0.348l-0.772-0.733v-0.038l-0.038-0.077-0.735-0.735-0.54-0.308c-0.154-0.154-0.694 0.039-0.694-0.232h-0.155c-0.309-0.115-0.579-0.154-0.772-0.154h-0.425c-0.077 0.077-0.154 0.116-0.27 0.116l-0.153 0.077-0.349 0.116-0.501 0.579c-0.116 0.232-0.154 0.425-0.193 0.618l-0.233 0.81c-0.115 0.271-0.154 0.463-0.154 0.618v2.085c0.116 1.93 0.309 3.551 0.618 4.825l0.077 0.657-0.926-1.197c-0.039 0-0.078-0.039-0.117-0.077l-0.115-0.155c-0.038-0.039-0.193-0.231-0.232-0.27l-0.038-0.039-0.618-0.888-0.502-0.579c-0.038-0.115-0.346-0.386-0.464-0.54l-0.423-0.502c-0.155-0.271-0.387-0.502-0.696-0.694l-0.579-0.579c-0.192-0.117-0.617-0.58-1.042-0.85l-0.115-0.077-0.348-0.31-0.154-0.077c-0.193-0.038-0.387-0.192-0.387-0.231l-0.308-0.078c-0.039-0.038-0.232-0.038-0.502-0.038-0.425 0-1.004 0.463-1.043 0.734l-0.193 0.463-0.116 0.231c-0.076 0.116-0.115 0.233-0.115 0.348l-0.115 0.54c0 0.039-0.039 0.27-0.078 0.426v1.621c0.078 1.158 0.154 1.891 0.27 2.161l0.463 1.468 0.231 0.462 0.118 0.309c0.115 0.193 0.153 0.31 0.153 0.348l0.077 0.154c0.27 0.579 0.541 1.004 0.734 1.274l0.231 0.347c0.116 0.194 0.232 0.348 0.348 0.464l1.466 1.273c0.039 0 0.541 0.271 0.735 0.387 0.193 0.115 0.732 0.232 1.312 0.232h0.385c0.31 0 0.541-0.039 0.657-0.078l0.888-0.501 0.309-0.425 0.115-0.271v-0.463c-0.038-0.116-0.076-0.154-0.076-0.193l-0.116-0.115c0-0.039-0.039-0.077-0.078-0.116s-0.154-0.618-0.887-0.965l-0.386-0.31c0-0.153-0.464-0.386-0.656-0.386-0.194 0-0.271 0.117-0.271 0.348 0 0.193 0.154 0.309 0.463 0.425l0.464 0.115c0.154 0.039 0.269 0.193 0.347 0.387l0.231 0.231c0.193 0.194 0.309 0.425 0.309 0.656l0.078 0.193c-0.309 0.579-0.541 0.889-0.696 1.004l-0.502 0.077c-0.423-0.27-0.771-0.579-1.004-0.926l-0.192-0.232c-0.038-0.038-0.077-0.116-0.192-0.232l-0.426-0.694c0-0.039-0.27-0.579-0.27-0.733l-0.386-0.888c-0.193-0.194-0.347-0.541-0.424-1.081l-0.271-0.656c-0.039-0.117-0.077-0.194-0.077-0.271 0-0.039-0.193-0.772-0.347-1.081l-0.386-0.811c0-0.27-0.155-0.617-0.194-1.042 0-0.116-0.192-1.043-0.192-1.158v-0.927c0-0.618 0.154-0.926 0.463-0.926 0.115 0 0.193 0 0.27 0.039 1.12 0.887 1.197 0.81 1.313 1.08l1.081 1.274 0.348 0.425 0.502 0.54c0.153 0.193 0.346 0.464 0.617 0.811l0.463 0.657 1.351 1.544 0.463 0.617c0.309 0.425 0.656 1.506 0.656 1.969l0.079 0.386c0 0.193 0.153 0.502 0.308 1.082l0.309 1.621 0.154 0.385 0.27 1.081v0.155l0.039 0.077v0.077l0.385 1.158 0.038 0.155c0.039 0.116 0.039 0.231 0.039 0.308 0.155 0.348 0.502 1.235 1.004 2.703l0.888 1.698c0.116 0.425 0.232 0.657 0.348 0.772l0.077 0.078 0.116 0.232 0.038 0.038c0.039 0.039 0.039 0.039 0.039 0.077l0.386 0.734c0.154 0.347 0.348 0.655 0.618 1.003l0.965 1.158c0.656 0.811 2.316 1.776 3.436 1.776 0.579 0 0.964-0.27 1.081-0.772 0-0.039 0-0.077 0.038-0.154v-0.387c0-0.076 0-0.154-0.038-0.192v-0.425s-0.117-0.695-0.194-1.004l-0.308-1.042-0.232-0.656v-0.039c-0.039-0.038-0.039-0.038-0.039-0.077l-0.231-0.502c-0.077-0.116-0.117-0.193-0.117-0.27v-0.116l-0.039-0.039-0.153-0.309c0-0.038-0.038-0.115-0.038-0.154l-0.039-0.116c-0.039-0.115-0.116-0.27-0.154-0.386l-0.039-0.077-0.618-1.236-0.039-0.115-0.193-0.231c-0.076-0.271-0.23-0.541-0.502-0.889l-0.115-0.348-0.078-0.115c-0.116-0.154-0.27-0.464-0.385-0.618l-0.077-0.077-0.116-0.231-0.078-0.078c0-0.192-0.424-0.541-0.772-1.273l-0.463-0.811-0.039-0.077-0.039-0.078-0.115-0.27c0-0.039-0.076-0.116-0.232-0.27l-0.077-0.116c0-0.193-0.309-0.347-0.425-0.694l-0.192-0.348c-0.039-0.116-0.116-0.232-0.233-0.271l-0.269-0.308c0-0.194-0.193-0.579-0.579-1.081l-0.502-0.54c-0.038-0.117-0.271-1.39-0.502-2.123l-0.116-0.271c0-0.039 0-0.077-0.039-0.154l-0.038-0.039c-0.271-1.351-0.425-2.278-0.425-2.818l-0.077-0.424c0-0.04-0.117-0.889-0.117-1.313v-0.348l-0.038-0.154v-0.193l-0.038-0.348-0.039-0.656c-0.039-0.232-0.077-0.501-0.077-0.811v-0.694l0.077-0.425c0.039-0.309 0.039-0.502 0.039-0.541v-0.192c0-0.116 0.115-0.309 0.386-0.657h0.231c0.194 0 0.386 0.039 0.618 0.116l0.541 0.154 0.269 0.231c0.155 0.079 0.233 0.156 0.233 0.233 0.039 0.115 0.115 0.192 0.193 0.269l1.66 2.124c0.115 0.116 0.811 0.772 0.965 1.042l3.821 4.671 0.656 0.927c0.386 0.502 0.619 0.772 0.696 0.811l0.655 0.771c0.117 0.193 0.233 0.387 0.272 0.425l0.154 0.232c0.54 0.772 1.119 1.467 1.698 2.046l1.196 1.081h0.618l-0.309-0.27z" fill="#231f20"/></g><g transform="translate(184.73,76.991)"><path d="m0 0 0.076-0.038c0.078-0.038 0.695-0.077 0.85-0.193 0.116-0.155 0.27-0.502 0.308-0.618 0.117-0.385 0.271-0.695 0.464-0.926l0.347-0.657c0.039-0.039 0.039-0.115 0.039-0.193 0-0.038-0.039-0.077-0.077-0.115-0.038-0.039-0.077-0.077-0.077-0.155 0-0.27-0.155-0.424-0.502-0.424h-0.502c-1.197 0.308-2.2 1.312-2.2 2.431 0 0.579 0.424 0.888 1.274 0.888m5.25-14.746c0.115 0.193 0.309 0.424 0.579 0.694 0 0.078 0 0.116 0.038 0.155l0.154 0.232c0.194 0.309 0.619 0.849 1.313 1.582l0.309 0.425 1.236 1.12h0.617l-0.308-0.271-0.463-0.541c-0.194-0.192-0.31-0.308-0.426-0.346l-0.656-0.696c-0.733-0.926-1.159-1.466-1.274-1.66-0.116-0.192-0.231-0.346-0.348-0.463l-1.699-2.162c-0.115-0.231-0.269-0.425-0.462-0.579l-0.27-0.308c0-0.039-0.039-0.078-0.154-0.194l-0.773-0.848c-0.309-0.541-0.27-0.271-0.618-0.734l-0.385-0.464c-0.193-0.192-0.695-0.81-0.81-0.965-0.118-0.115-0.31-0.347-0.465-0.541l-0.462-0.462c-0.349-0.425-0.541-0.695-0.58-0.772l-1.698-1.931-0.811-0.81c-0.502-0.502-0.811-0.734-0.965-0.734-0.656-0.347-1.119-0.541-1.467-0.541-0.27 0-0.463 0.039-0.579 0.156l-0.231 0.115c-0.735 0.54-1.197 1.119-1.313 1.698-0.116 0.348-0.155 0.927-0.155 1.738v0.386c0 0.579 0 1.081 0.039 1.467 0 0.154 0.192 1.004 0.192 1.158l0.194 0.927c0.115 0.617 0.347 1.505 0.772 2.702 0.038 0.192 0.271 1.119 0.425 1.467 0.038 0.077 0.154 0.386 0.309 0.888 0.154 0.502 0.231 0.81 0.269 0.926l0.116 0.27c0.58 1.583 1.197 2.626 1.815 3.128 0.154 0.038 0.579 0.269 0.888 0.269 0.193 0 0.81-0.502 0.81-0.656v-0.617c0-0.233-0.038-0.425-0.076-0.541-0.387-0.965-0.618-1.583-0.734-1.892l-0.463-1.235c-0.271-0.617-0.425-1.737-0.541-2.085-0.077-0.386-0.155-0.655-0.231-0.771l-0.232-1.198c-0.039-0.038-0.194-0.579-0.194-0.694l-0.115-0.579-0.077-0.194c-0.077-0.115-0.116-0.192-0.116-0.231l-0.039-0.231c-0.038-0.194-0.076-0.271-0.076-0.309-0.116-0.502-0.194-0.888-0.309-1.158 0-0.039-0.387-1.698-0.387-1.738l-0.193-1.081c-0.038-0.116-0.038-0.27-0.038-0.462 0-0.386 0.116-0.735 0.308-1.004h0.271c0.463 0 0.81 0.154 1.043 0.424 0.115 0.038 0.539 0.386 0.617 0.463 0.038 0 0.541 0.502 0.579 0.502 0.424 0.54 0.734 0.927 0.927 1.12 0.424 0.579 0.887 1.08 1.351 1.582 1.389 1.661 2.2 2.587 2.393 2.742l2.548 3.01c0.425 0.579 0.694 0.927 0.772 1.004z" fill="#231f20"/></g><g transform="translate(200.68,52.285)"><path d="m0 0c-0.425 0.348-0.618 0.85-0.618 1.544 0 0.193 0.039 0.463 0.077 0.81v0.734c0 0.039 0 0.155 0.039 0.348l0.077 0.347 0.502 3.127c0.309 1.467 0.656 2.702 1.042 3.744-0.077 0 0.193 0.734 0.31 1.043 0.115 0.425 0.23 0.695 0.269 0.772l0.039 0.039c0 0.038 0.077 0.154 0.077 0.269 0 0.077 0.039 0.233 0.078 0.502l-0.541-0.463-0.077-0.154-0.734-0.733c0-0.039-0.115-0.116-0.154-0.232l-0.039-0.077-0.193-0.232-0.154-0.232-0.077-0.115c-0.039-0.078-0.077-0.116-0.077-0.155l-0.156-0.309-0.81-1.042c-0.115-0.116-0.192-0.27-0.309-0.502l-0.193-0.193c-0.076-0.193-0.192-0.386-0.309-0.502-0.23-0.192-0.385-0.386-0.463-0.54l-0.269-0.386c0-0.039-0.078-0.154-0.078-0.193l-0.309-0.309-0.039-0.116-0.115-0.154c-0.039-0.117-0.154-0.232-0.271-0.347l-0.038-0.078c0-0.038 0-0.077-0.039-0.115l-0.115-0.117c-0.039-0.039-0.078-0.039-0.078-0.077l-0.27-0.463c-0.116-0.116-0.308-0.424-0.464-0.579-0.038-0.116-0.308-0.386-0.772-0.849l-0.771-0.772-0.541-0.541-0.347-0.386-0.193-0.116c-0.271-0.193-0.501-0.425-0.501-0.463 0-0.309-0.271-0.463-0.85-0.463-0.348 0.078-0.541 0.27-0.541 0.618l0.27 1.968c0 0.116 0 0.232 0.038 0.309 0.194 0.579 0.271 0.965 0.271 1.081l0.348 1.312 0.385 2.317 0.309 0.81 0.464 2.973 0.039 1.119-0.271 0.31c0.194 0.192 0.271 0.347 0.309 0.386 0.27 0.154 0.541 0.231 0.889 0.231 0.115 0 0.308-0.077 0.345-0.077 0.62-0.116 1.004-0.579 1.004-0.888 0-0.039 0.233-0.502 0.233-0.541l0.231-1.158c0-0.154 0.077-0.617 0.077-0.811 0-0.115-0.038-0.424-0.038-0.579l-0.309-1.235c0-0.27-0.309-1.157-0.309-1.467l-0.192-1.042-0.271-0.81c0-0.194-0.039-0.386-0.078-0.541-0.038-0.078-0.038-0.193-0.038-0.347v-0.271c0.502 0.618 0.849 1.042 0.966 1.274l0.424 0.618c0.116 0.115 0.308 0.425 0.347 0.463 0.115 0.193 0.271 0.308 0.425 0.425 0.038 0 0.116 0.154 0.271 0.463 0.115 0.116 0.193 0.231 0.193 0.27 0.153 0.154 0.23 0.271 0.269 0.386 0.04 0.154 0.194 0.348 0.387 0.541l0.385 0.463c0.271 0.27 0.657 0.965 0.734 1.119 0.347 0.348 0.617 0.734 0.811 1.081 0.039 0.193 0.81 1.004 1.119 1.274l0.463 0.463c0.348 0.425 1.004 0.657 1.931 0.657 0.309 0 0.541-0.309 0.656-0.965 0.116-0.657 0.192-1.236 0.192-1.776 0-0.154-0.037-0.386-0.115-0.695l-0.27-0.849-0.039-0.27c-0.039-0.194-0.039-0.31-0.077-0.425l-0.155-0.618-0.038-0.232c-0.038-0.154-0.116-0.27-0.154-0.346l-0.155-0.31c0-0.039-0.038-0.308-0.038-0.425-0.039-0.115-0.078-0.269-0.078-0.423l-0.038-0.156c0-0.038-0.077-0.463-0.077-0.579 0-0.154-0.154-0.54-0.154-0.655-0.04-0.116-0.079-0.193-0.079-0.271-0.076-0.309-0.115-0.541-0.115-0.733l-0.077-0.541c-0.155-0.617-0.116-0.502-0.116-0.617l-0.039-0.078c0-0.154-0.038-0.27-0.116-0.347l0.04-0.463c-0.116-0.348-0.155-0.657-0.155-0.927l-0.039-0.232c0.039-0.038 0.039-0.077 0.039-0.153 0-0.117-0.039-0.194-0.039-0.31l0.154 0.154c0.696 0.696 1.12 1.12 1.236 1.275 0.579 0.733 0.848 1.119 0.888 1.158 0.309 0.347 0.618 0.733 0.926 1.235l0.657 0.772 0.618 0.733c0.269 0.425 0.54 0.735 0.81 0.966 0.115 0.192 0.348 0.54 0.734 0.965 0.038 0 0.192 0.308 0.346 0.347l0.966 1.082c0.656 0.655 0.965 1.003 1.003 1.042l2.24 2.354 1.159 1.043h0.617l-0.309-0.271-0.463-0.541-0.309-0.269-0.232-0.271c-0.193-0.154-0.386-0.424-0.502-0.463l-1.197-1.312c-0.193-0.116-0.27-0.193-0.27-0.232-0.078-0.116-0.232-0.27-0.424-0.425l-0.348-0.386c-0.116 0-0.271-0.154-0.463-0.502-0.077-0.115-0.502-0.579-1.274-1.35l-2.432-2.934c-0.115-0.193-0.656-0.812-0.85-1.158-0.039-0.039-0.269-0.271-0.308-0.387l-0.926-1.273c-0.078-0.078-0.387-0.232-0.695-0.773l-0.387-0.425c-0.269-0.346-0.463-0.502-0.502-0.54-0.154-0.039-0.694-0.733-0.965-0.733-0.039 0-0.077 0-0.115-0.039l-0.116-0.077-0.232-0.116h-0.386l-0.116 0.038h-0.154c-0.078 0.04-0.154 0.04-0.232 0.04z" fill="#231f20"/></g><g transform="translate(230.05,66.453)"><path d="m0 0h0.619l-0.656-0.812-0.58-0.617c-0.038-0.193-0.232-0.386-0.54-0.617-0.656-0.772-1.081-1.274-1.197-1.468-0.117-0.192-0.232-0.346-0.347-0.463l-1.699-2.162c-0.116-0.231-0.27-0.424-0.463-0.579l-0.27-0.308c0-0.038-0.039-0.078-0.155-0.194l-0.773-0.848c-0.308-0.541-0.269-0.271-0.617-0.734l-0.385-0.464c-0.194-0.192-0.696-0.81-0.812-0.964-0.115-0.116-0.309-0.348-0.463-0.541l-0.463-0.463c-0.039-0.116-0.541-0.386-0.656-0.579l-0.115-0.039c-0.117-0.039-0.272-0.154-0.272-0.193l-0.192-0.039c-0.193-0.038-0.54-0.077-1.042-0.077-0.039 0-0.154 0.039-0.193 0.039l-0.117 0.077c-0.54 0.193-0.926 0.695-1.157 1.506-0.116 0.347-0.154 0.694-0.154 1.042l-0.039 1.583c0.039 0.039 0.039 0.077 0.039 0.192v0.502l-0.464-0.887c-0.116-0.117-0.193-0.309-0.193-0.347l-0.773-1.314c-0.076-0.462-0.54-1.157-1.389-2.045l-0.116-0.155-0.425-0.579-0.502-0.308-0.154-0.117c-0.193-0.115-0.54-0.27-0.965-0.385l-0.347-0.117c-0.039 0-0.348 0.117-0.463 0.117l-0.271 0.077-0.231 0.154c-0.154 0.116-0.232 0.154-0.27 0.154-0.193 0.117-0.309 0.348-0.425 0.618l-0.194 0.463-0.115 0.232c-0.077 0.116-0.115 0.232-0.115 0.347l-0.117 0.541c0 0.039-0.038 0.27-0.077 0.425v1.621c0.077 1.159 0.155 1.892 0.27 2.162l0.464 1.467 0.231 0.463 0.116 0.309c0.116 0.193 0.155 0.309 0.155 0.347l0.077 0.155c0.269 0.579 0.541 1.004 0.733 1.274l0.232 0.347c0.039 0.039 0.463 0.541 0.695 0.772l1.004 0.965c0.154 0.077 1.196 0.927 2.161 0.811h0.386c0.347 0 0.656-0.077 0.927-0.232l0.618-0.347 0.308-0.424 0.115-0.271v-0.464c-0.038-0.115-0.077-0.154-0.077-0.192l-0.077-0.154c-0.038-0.155-0.154-0.309-0.347-0.502-0.155-0.155-0.502-0.386-0.656-0.541l-0.386-0.309c0-0.154-0.464-0.386-0.656-0.386-0.193 0-0.271 0.116-0.271 0.348 0 0.192 0.154 0.309 0.463 0.424l0.464 0.116c0.231 0.077 0.386 0.193 0.424 0.386l0.233 0.232c0.154 0.154 0.23 0.386 0.23 0.656l-0.038 0.347c-0.154 0.579-0.347 0.85-0.618 0.85l-0.076-0.039h-0.117l-0.463-0.116c0.078 0-0.309-0.193-0.849-0.887l-0.193-0.233c-0.038-0.038-0.077-0.115-0.193-0.231l-0.386-0.656c0-0.038-0.348-0.425-0.348-0.579l-0.386-1.081c-0.192-0.193-0.346-0.541-0.425-1.081l-0.269-0.656c-0.039-0.116-0.078-0.193-0.078-0.27-0.193-0.579-0.309-0.927-0.347-1.081l-0.154-0.657c0-0.27-0.155-0.964-0.194-1.389 0-0.116-0.038-0.541-0.038-0.657v-0.347c0-0.425 0.038-0.927 0.116-1.544 0.154-0.579 0.386-0.85 0.733-0.85 0.038 0 0.077 0.039 0.154 0.077l0.117 0.079c0.039 0 0.115 0.076 0.232 0.23 0.115 0.155 0.424 0.464 0.424 0.502l0.502 0.695 0.617 0.85 0.27 0.54c0.038 0.039 0.193 0.309 0.425 0.772 0.231 0.424 0.348 0.695 0.386 0.734l0.193 0.308c0.116 0.194 0.347 0.579 0.695 1.236l0.232 0.617c0.038 0.116 0.115 0.155 0.154 0.27 0 0.117 0.038 0.194 0.155 0.309 0.038 0.039 0.154 0.116 0.346 0.31l0.271 0.231 0.348 0.154 0.81-0.039c0.271 0 0.425-0.077 0.502-0.269 0.039-0.116 0.193-0.194 0.193-0.232l0.155-0.309c0-0.077 0-0.155 0.039-0.193l0.038-0.27c0-0.502-0.038-0.85-0.155-1.042l-0.116-0.502-0.039-0.889c-0.038-0.115-0.038-0.192-0.038-0.308l-0.038-0.27v-0.232c0-0.116 0-0.193-0.039-0.232l-0.039-0.27-0.076-0.811 0.076-0.81c0.039 0.039 0.078 0.039 0.193 0.039 0.116 0 0.271 0.077 0.387 0.192 0.348 0.271 0.811 0.733 1.351 1.352 0.54 0.617 0.848 0.964 0.965 1.081l2.547 3.01c0.425 0.58 0.696 0.927 0.773 1.004 0.116 0.117 0.463 0.657 0.733 0.927 0 0.038 0.077 0.154 0.194 0.27l0.154 0.232c0.193 0.347 0.463 0.656 0.81 1.003z" fill="#231f20"/></g><g transform="translate(244.07,64.137)"><path d="m0 0 0.502 0.501 1.042 0.811 1.119 1.004h0.618l-0.308-0.27-0.31-0.348-0.849-0.772c-0.656-0.617-1.043-0.926-1.158-0.965l-1.39-1.313c-0.27-0.385-0.656-0.694-1.12-0.964l-1.042-0.696c-0.192-0.192-0.27-0.269-0.309-0.269-0.153-0.116-0.578-0.464-0.733-0.579-0.116-0.156-0.386-0.348-0.81-0.619l-0.85-0.54-0.386-0.347-0.502-0.271c-0.347-0.192-0.501-0.27-0.501-0.308l-1.622-1.159c-0.193-0.115-0.386-0.154-0.502-0.193l-0.578-0.269-0.58-0.387-0.347-0.154c-0.077 0-0.116-0.116-0.271-0.193-0.308-0.193-0.502-0.308-0.54-0.308l-1.814-0.735c-0.54-0.192-1.042-0.308-1.467-0.308-0.155 0-0.271 0-0.31 0.039-0.115 0.038-0.154 0.077-0.192 0.077-0.31 0.038-0.656 0.192-1.004 0.425-0.116 0.038-0.27 0.385-0.386 0.502-0.193 0.346-0.27 0.579-0.308 0.694 0 0.038 0 0.077-0.039 0.116l-0.078 0.077-0.192 0.386c-0.039 0.077-0.117 0.309-0.193 0.733 0 0.155 0 0.386-0.039 0.695 0 0.193 0 0.386-0.039 0.618v0.656c0 0.232 0 0.425 0.039 0.579 0 0.116 0 0.232 0.039 0.425v0.271l0.115 0.385 0.27 0.579c0.117 0.271 0.193 0.425 0.193 0.54l0.27 0.619c0.194 0.308 0.31 0.579 0.348 0.81l0.502 0.811c0.309 0.502 0.464 0.81 0.464 0.887l0.693 0.811c0.194 0.193 0.966 0.657 1.082 0.695 0.077 0.039 0.309 0.155 0.734 0.348 0.192 0.038 0.655 0.231 1.235 0.231 0.424 0 0.656 0 0.695-0.038 0.502-0.116 1.235-0.695 1.351-1.043l0.154-0.733c0-0.502-0.618-1.506-0.926-1.66-0.348-0.232-0.579-0.348-0.618-0.348-0.27 0-0.386 0.116-0.386 0.387 0 0.038 0.039 0.077 0.154 0.192 0.811 0.348 1.197 0.811 1.197 1.352-0.039 0.347-0.502 1.042-0.849 1.158-0.155-0.039-0.27-0.077-0.386-0.077-0.386-0.077-0.695-0.271-0.966-0.579-0.463-0.464-0.693-0.734-0.655-0.773 0-0.077-0.194-0.231-0.271-0.425l-0.154-0.308-0.348-0.694-0.154-0.464-0.27-0.773c-0.117-0.192-0.232-0.617-0.347-1.234l-0.194-1.12c-0.039-0.347-0.078-0.617-0.078-0.734l-0.076-0.308c-0.039-0.194-0.039-0.271-0.039-0.309l-0.038-0.464v-0.115c0.038-0.077 0.038-0.155 0.038-0.27v-0.696c0.039-0.501 0.077-0.733 0.077-1.003 0.077-0.772 0.31-1.158 0.696-1.158l0.733 0.271c0.077 0.038 0.269 0.115 0.54 0.23 0.349 0.193 0.618 0.31 0.85 0.349l0.965 0.501c0.193 0.116 1.042 0.464 1.389 0.656l0.695 0.387 0.387 0.154c0.192 0.193 0.385 0.347 0.578 0.386l0.194 0.154c0.115 0.077 0.231 0.116 0.269 0.154 0.039 0 0.078 0.039 0.193 0.116l0.155 0.116 1.775 1.274c0.426 0.232 0.387 0.193 0.735 0.541l0.385 0.347c0.271 0.193 0.849 0.618 1.158 0.81 0.734 0.464 1.313 0.927 1.738 1.352l0.656 0.656z" fill="#231f20"/></g><g transform="translate(249.93,67.108)"><path d="m0 0c-0.039 0-0.309 0.039-0.348 0.039l-0.154-0.077c-0.154-0.038-0.386-0.154-0.424-0.154l-0.348-0.232c-0.734-0.502-0.463-0.502-0.81-0.849l-0.155-0.232-0.077-0.116-0.348-0.694c0-0.078-0.039-0.156-0.154-0.271l-0.309-1.081h0.579c0.116 0 0.232 0.039 0.347 0.116l0.541 0.348c0.617 0.424 1.004 0.732 1.197 0.888 0.038 0.154 0.502 0.579 0.54 0.733l0.271 0.617 0.038 0.271-0.038 0.579zm8.956-1.544 0.966 0.889h0.617l-0.309-0.271-1.466-1.583-0.233-0.192-0.502-0.579c-0.269-0.387-0.578-0.773-0.925-1.12l-0.811-0.965c0-0.039-0.232-0.309-0.657-0.811l-0.115-0.154-0.657-0.85-0.772-0.887-1.892-1.931c-0.116-0.038-0.231-0.231-0.27-0.271l-1.119-1.042c-0.194-0.347-0.811-0.887-1.892-1.583l-0.154-0.115-0.579-0.425-0.58-0.154-0.192-0.077c-0.271-0.039-0.619-0.077-1.004-0.077h-0.387c-0.077 0-0.308 0.231-0.385 0.231l-0.271 0.155c-0.039 0-0.115 0.077-0.231 0.193l-0.193 0.193-0.58 0.695-0.502 0.772c-0.384 0.617-0.578 1.659-0.578 3.088v1.042c0.076 0.232 0.115 0.425 0.115 0.618v0.232l0.233 0.694c0 0.116 0 0.193 0.038 0.232 0.038 0.155 0.077 0.27 0.077 0.309l0.077 0.231c0 0.039 0.038 0.194 0.155 0.464l0.038 0.038v0.077c0.888 1.777 1.738 2.973 2.509 3.629 0.657 0.502 2.201 1.236 2.858 1.236 0.192 0 0.308 0 0.424-0.038l0.27-0.039c0.502-0.194 0.773-0.54 0.773-1.121 0-0.269-0.117-0.501-0.309-0.771-0.116-0.231-0.232-0.464-0.387-0.656l-0.154-0.233-0.579-0.501c-0.155-0.077-0.309-0.193-0.425-0.386-0.077 0-0.231-0.116-0.463-0.347l-0.116-0.116c-0.038-0.039-0.192-0.155-0.463-0.27l-0.502-0.232-0.54-0.116c-0.348-0.424-0.618-1.505-0.734-3.204l-0.076-0.926v-0.696c0.038-0.115 0.038-0.154 0.038-0.192 0.038-0.348 0.077-0.656 0.077-0.85 0.039-0.039 0.154-0.81 0.154-0.926 0-0.425 0.039-0.657 0.077-0.657 0.077-0.115 0.156-0.54 0.232-0.694 0.115-0.193 0.27-0.348 0.463-0.541l0.039-0.038h0.115c0.232 0 0.502 0.115 0.773 0.309 0.116 0.115 0.54 0.27 0.578 0.308l0.657 0.502 0.849 0.656 0.425 0.425c0.077 0.038 1.119 1.158 1.196 1.235l0.271 0.232c0.348 0.231 0.656 0.579 1.004 1.004l0.425 0.502c0.039 0.115 0.656 0.54 0.849 0.965 0.656 0.81 1.119 1.351 1.35 1.621l2.355 2.857c0.194 0.27 0.387 0.463 0.502 0.578z" fill="#231f20"/></g></g></g></g></g></svg>
